<svg width="20" height="20" viewBox="0 0 20 20" xmlns="http://www.w3.org/2000/svg">
  <defs>
    <style type="text/css" id="current-color-scheme">.ColorScheme-Text { color: #fcfcfc; } </style>
  </defs>
  <path d="M10 4.31c-1.442 0-2.88.492-4.052 1.475-.705.592-1.25 1.312-1.629 2.1-.052-.005-.103-.016-.157-.016-.942 0-1.7.758-1.7 1.7v2.101c0 .942.758 1.7 1.7 1.7.054 0 .105-.011.157-.016.068.14.138.28.217.417.309.551 1.134.08.816-.467-1.305-2.26-.8-5.124 1.2-6.802 2-1.678 4.903-1.678 6.903 0 2 1.678 2.504 4.542 1.2 6.802l-.024.047c0 0-.633 1.402-1.878 1.402l-1.575-.014c-.148-.216-.384-.366-.667-.366h-1.015c-.456 0-.822.368-.822.823 0 .28.178.494.586.494l3.493.001c1.868 0 2.675-1.834 2.712-1.919v-.005c.078-.135.147-.275.215-.414.054.005.108.016.164.016.942 0 1.7-.758 1.7-1.7v-2.101c0-.942-.758-1.7-1.7-1.7-.055 0-.106.009-.159.016-.378-.788-.921-1.508-1.626-2.1-1.172-.983-2.617-1.475-4.059-1.475zM7.95 7.297c-.366-.024-.7.054-.992.361-.78.82-1.26 1.937-1.26 3.126 0 .98.327 2.079.88 2.119.786.057 2.027-.459 3.424-.459 1.48 0 2.787.58 3.562.442.47-.083.744-1.205.744-2.102 0-1.189-.482-2.305-1.261-3.126-.78-.82-1.856 0-3.045 0-.743 0-1.441-.321-2.052-.361zm-.174 2.021c.434 0 .786.352.786.787 0 .434-.352.786-.786.786a.787.787 0 1 1 0-1.573zm4.452 0c.435 0 .787.352.787.787 0 .434-.352.786-.787.786a.787.787 0 1 1 0-1.573z" style="fill:currentColor;" class="ColorScheme-Text"/>
</svg>
