<svg xmlns="http://www.w3.org/2000/svg" width="22" height="22">
 <defs>
  <style id="current-color-scheme" type="text/css">
   .ColorScheme-Text { color:#dfdfdf; }
  </style>
 </defs>
    <path style="fill:currentColor" class="ColorScheme-Text" d="M6.397 20c-.435 0-.786-.16-1.014-.458-.235-.308-.297-.738-.169-1.179l.515-1.772a.46.46 0 0 0-.077-.41.48.48 0 0 0-.378-.186h-1.48c-.434 0-.785-.158-1.013-.457-.235-.309-.297-.738-.169-1.179L4.38 8.3l.195-.666c.263-.903 1.219-1.638 2.132-1.638h1.77a.47.47 0 0 0 .456-.338l.585-2.015c.262-.903 1.218-1.637 2.133-1.637L15.435 2h2.77c.435 0 .786.158 1.014.457.235.308.297.738.169 1.178l-.792 2.73C18.333 7.266 17.376 8 16.463 8l-3.793.008H10.9a.47.47 0 0 0-.454.337L8.97 13.4a.46.46 0 0 0 .077.411c.09.117.23.186.379.186l2.506-.004h2.763c.435 0 .785.157 1.014.457.235.308.296.738.168 1.179l-.793 2.728c-.261.902-1.218 1.636-2.132 1.636L9.16 20H6.396Z"/>
</svg>
