<svg width="16" height="16" viewBox="0 0 16 16" xmlns="http://www.w3.org/2000/svg">
  <defs>
    <style type="text/css" id="current-color-scheme">.ColorScheme-Text { color: #fcfcfc; } </style>
  </defs>
  <path d="M7.5845 1.0466l-.3952 1.2048-1.2048.3976 1.2048.3976.3952 1.2024.3976-1.2024 1.2048-.3976-1.2048-.3976-.3976-1.2048zm3.0036.8886l-.1964.6012-.6012.2012.6012.1964.1964.6012.2012-.6012.6012-.1964-.6012-.2012-.2012-.6012zM3.6683 1.9784l-.6635 2.0072L1 4.6443l2.0048.6635.6635 2.0072.6635-2.0072 2.0048-.6635-2.0072-.6611zm10.333 1.1305c-.207 0-.364.0383-.364.0383L3.1653 13.6216l1.3318 1.3318L14.969 4.479c.1866-1.1906-.5122-1.3719-.9677-1.37z" style="fill:currentColor;" class="ColorScheme-Text"/>
</svg>
