<?xml version="1.0" encoding="UTF-8" standalone="no"?>
<svg viewBox="0 0 32 32" height="32mm" width="32mm">
  <defs>
    <style type="text/css" id="current-color-scheme">.ColorScheme-Text { color: #fcfcfc; } </style>
  </defs>
  <g transform="translate(-152.13084,-102.29495)">
    <g transform="matrix(0.34178983,0,0,0.34178983,33.329214,77.512999)">
      <g transform="translate(232.84015,-7.4567629)">
        <path
           d="m 152.17,88.09 c 3.05,1.75 6.23,3.32 9.13,5.29 8.87,6 16.51,13.3 21.37,23 4.7,9.44 5.8,19.27 2.17,29.35 a 26.75,26.75 0 0 1 -15.21,15.89 c -3.83,1.65 -8,2.52 -12,3.76 -1,0.32 -1.35,-0.14 -1.31,-1.09 q 0,-0.81 0,-1.62 c 0,-1.13 0.45,-1.58 1.62,-1.8 8.37,-1.59 15.86,-4.78 20.64,-12.36 3.17,-5 4.12,-10.62 3.83,-16.48 -0.47,-9.42 -4.61,-17.25 -10.86,-24 -3.11,-3.36 -6.76,-6.23 -10.19,-9.3 a 7.12,7.12 0 0 0 -1.16,-0.68 c 0.29,2.13 0.64,4 0.79,6 0.51,6.19 -2.22,11.93 -8.91,13.2 -5.94,1.13 -9.31,4.83 -11.28,10.17 -0.41,1.11 -0.85,1.54 -2,1.13 -0.83,-0.29 -1.69,-0.49 -2.68,-0.77 a 19.09,19.09 0 0 1 2.79,-6.55 A 16.64,16.64 0 0 1 151,113 c 3.33,-0.53 5.4,-3.26 5.58,-6.82 0.21,-4.25 -1,-8.21 -2.5,-12.11 -0.77,-2 -1.49,-4 -2.24,-6 z"
           style="fill:currentColor;" class="ColorScheme-Text" />
        <path
           d="m 145.46,130.87 a 9.36,9.36 0 0 1 7.66,-8.31 16.17,16.17 0 0 0 12.33,-10.81 c 0.19,-0.53 0.4,-1 0.74,-1.94 1.53,1.88 2.9,3.49 4.18,5.18 a 30.13,30.13 0 0 1 6.2,13.12 c 1.29,7.67 0.82,15.12 -5.29,21 a 21.1,21.1 0 0 1 -8,4.74 c -1.89,0.64 -3.78,1.25 -5.7,1.78 a 15.11,15.11 0 0 1 -2.48,0.24 4.31,4.31 0 0 1 0,-1 c 1.63,-5.2 1,-10.51 0.59,-15.75 -0.26,-3.65 -2.57,-6.06 -6.06,-7.19 -1.36,-0.47 -2.78,-0.72 -4.17,-1.06 z"
           style="fill:currentColor;" class="ColorScheme-Text" />
      </g>
    </g>
  </g>
</svg>
