<svg viewBox="0 0 24 24" xmlns="http://www.w3.org/2000/svg" height="24" width="24">
    <defs>
        <style type="text/css" id="current-color-scheme">.ColorScheme-Text { color: #fcfcfc; } </style>
    </defs>
  <path d="M8.571 1.286A1.72 1.72 0 0 0 6.857 3v10.286c0 0.634 0.353 1.183 0.868 1.48 0.251 0.144 0.538 0.234 0.846 0.234h13.715A1.72 1.72 0 0 0 24 13.286V3a1.72 1.72 0 0 0 -1.714 -1.714Zm0.56 12.087zm3.166 0zm-10.583 -0.087A1.72 1.72 0 0 0 0 15v6a1.72 1.72 0 0 0 1.714 1.714h8.572a1.715 1.715 0 0 0 1.473 -0.857c0.148 -0.253 0.241 -0.544 0.241 -0.857v-4.286H8.571c-0.296 0 -0.582 -0.042 -0.857 -0.114a3.439 3.439 0 0 1 -2.571 -3.314Zm18 3.428h-6V21H18a1.72 1.72 0 0 0 1.714 -1.714z" style="fill:currentColor;" class="ColorScheme-Text" stroke-width="1"></path>
</svg>
