<svg xmlns="http://www.w3.org/2000/svg" viewBox="0 0 32 32" height="32mm" width="32mm">
  <defs>
    <style type="text/css" id="current-color-scheme">.ColorScheme-Text { color: #fcfcfc; } </style>
  </defs>
  <path d="M 15.163738,3.2962943 C 11.801954,3.737694 8.8275702,4.8892609 6.4950932,7.4716377 1.8454512,12.619443 2.2996966,20.849778 7.4373875,25.490285 c 1.5223398,1.37502 3.3519915,2.304274 5.3188635,2.848478 1.489046,0.411997 3.115383,0.520132 4.647008,0.336361 C 23.538148,27.939031 28.438574,22.810286 28.710641,16.597689 28.974415,10.574468 24.874243,5.0982078 19.026913,3.6435422 17.809661,3.3407217 16.417307,3.1317011 15.163738,3.2962943 m 5.542816,4.903188 c 0.265747,0.1999857 0.487623,0.097964 0.783833,0.1933664 0.797478,0.2568517 1.873771,0.606794 2.46127,1.2071552 0.314198,0.3210773 0.59849,0.7023081 0.474863,1.1749291 -0.243209,0.929773 -1.329071,1.61831 -1.704396,2.519462 -0.340217,0.104749 -0.475275,0.517988 -0.447904,0.839821 -0.355952,0.330926 -0.763801,1.072438 -0.727845,1.567665 l -0.335928,0.223952 v 0.447904 c -0.362629,-0.0059 -0.411692,0.306472 -0.671857,0.503893 0.08113,-0.455091 0.398524,-0.825115 0.602044,-1.231737 0.446301,-0.891686 0.903032,-1.772767 1.133586,-2.743415 h -0.05599 c -0.157187,0.34066 -0.459878,0.453656 -0.686066,0.730308 -0.320187,0.391619 -0.467507,0.868145 -0.760376,1.285477 -0.237186,0.337986 -0.602575,0.618088 -0.513137,1.063558 l -0.391916,0.279941 h 0.111975 l -0.503892,0.951796 -0.615868,0.951797 -0.223953,-0.111976 -0.111975,0.391916 0.27994,-0.223952 c -0.253576,0.59349 -0.5181,1.520541 -1.119761,1.847605 l -0.05599,0.55988 0.111977,-0.111975 h 0.05599 l -0.335928,1.175748 -0.167965,0.167965 v 0.05599 l 0.167965,0.05599 0.27994,-0.223952 c -0.07294,-0.340996 0.07351,-0.57003 0.335927,-0.783833 l -0.223952,0.89581 0.615869,-0.839821 c -0.557821,1.609519 -0.521318,3.577409 -2.234468,4.419599 -0.388403,0.190942 -0.414892,0.489055 -0.900861,0.339385 l 0.05599,0.167964 c -2.00638,0.809418 -2.963769,-2.113458 -4.199105,-3.13533 l 0.22395,-0.671856 c 0.291475,0 0.163054,-0.554703 0.09332,-0.727844 -0.196495,-0.487849 -0.424476,-0.991103 -0.522556,-1.511678 -0.07173,-0.380729 -0.0048,-0.975244 -0.354591,-1.231737 L 10.012844,16.037815 9.844881,16.093805 9.78889,15.365959 H 9.732899 L 9.78889,15.757876 H 9.732898 l -0.6458514,-2.071563 -0.1939717,-0.615869 0.05599,0.279941 h -0.05599 C 8.592841,12.403263 8.3857399,11.577813 7.9535493,10.662956 7.797189,10.331976 7.3810611,9.8064243 7.4210136,9.4312195 7.5559416,8.1640509 9.6593837,8.5603721 10.460742,8.7831231 c 0.276633,0.076894 0.558316,0.136739 0.783789,0.3247402 0.803067,0.6696029 0.557817,1.6385877 0.733201,2.5628787 0.129505,0.682499 0.43722,1.325205 0.554567,2.015569 h -0.05599 l -0.167965,-0.27994 0.167965,0.615868 h -0.05599 l -0.111975,-0.223952 h -0.05599 c 0.129063,0.692307 0.313975,1.418448 0.531283,2.087542 0.151648,0.46693 0.476509,1.062965 0.364528,1.551681 l 0.55988,1.231737 0.167964,-0.167963 -0.167964,0.167963 0.27994,0.55988 v -0.279939 l 0.223952,0.05599 -0.05599,-0.27994 h 0.05599 l 0.55988,1.791618 h 0.05599 l 1.497809,-3.191318 3.653091,-6.718567 -0.111976,0.05599 C 20.12638,9.9875623 20.506308,9.154322 20.370623,8.4234395 H 20.76254 L 20.706548,8.199488 m 0,5.486828 c -0.19258,0.300875 -0.305813,0.480565 -0.279941,0.839821 h 0.05599 l 0.111975,-0.223952 0.111977,-0.615869 m 1.735629,0.223954 -0.05599,0.05599 0.05599,-0.05599 m -9.909884,0.167963 0.167964,0.615869 0.111977,-0.167965 h 0.05599 c 0.0291,0.154294 0.138671,0.471449 -0.05599,0.503893 l 0.279938,0.951797 h -0.05599 C 12.898667,15.477786 12.382371,14.58503 12.532299,14.078228 m 7.782339,0.335928 -0.223952,0.671856 -0.05599,0.05599 -0.167964,-0.05599 c -0.345957,0.592734 -0.968545,1.452459 -1.063772,2.127546 l -0.223952,0.05599 v 0.559881 c -0.312027,0.01387 -0.288118,0.277852 -0.464709,0.480608 -0.503083,0.577619 -0.95719,1.655791 -0.990981,2.43077 0.440415,-0.22896 0.478027,-0.921632 0.664123,-1.343713 0.145108,-0.329115 0.401683,-0.579792 0.551198,-0.895808 0.334295,-0.70657 0.640994,-1.775042 1.248155,-2.29551 l -0.05599,-0.167964 c 0.379648,-0.268298 0.718623,-0.900593 0.839821,-1.343713 l -0.05599,-0.279941 m -8.00629,0.05599 0.05599,0.503892 h 0.05599 l -0.111979,-0.503893 m 7.894315,0.335928 -0.111977,0.167965 0.111977,-0.167965 m -7.763676,0.261277 0.01866,0.03733 -0.01866,-0.03733 m 7.651699,0.746508 0.05599,0.05599 -0.05599,-0.05599 m -7.502399,0.167965 0.167965,0.335928 v -0.335928 h -0.167965 m 0.541218,0.09332 -0.01866,0.03733 0.01866,-0.03733 m 7.409085,0.01866 -0.335927,0.391916 0.335927,-0.391916 m 0.522556,0.149302 0.01866,0.03733 -0.01866,-0.03733 m -0.802495,0.35459 -0.167965,0.391917 h -0.05599 l 0.111976,-0.391917 h 0.111977 m -10.003198,0.205292 0.01866,0.03733 -0.01866,-0.03733 m 0.429241,0.242613 0.05599,0.335929 h 0.05599 l -0.111982,-0.335929 m 9.685932,0.05599 0.05599,0.27994 -0.167964,0.05599 c 0.165555,0.313189 -0.372759,0.858343 -0.55988,1.119762 0.428859,0.09238 -0.270552,0.710215 -0.503894,0.727844 v 0.05599 c 0.137919,0.168022 -0.173016,0.572651 -0.335927,0.671857 0.204476,-0.860867 0.907392,-2.265934 1.511677,-2.911379 m -1.679642,0.27994 -0.05599,0.05599 0.05599,-0.05599 m 1.119761,0 -0.447904,0.951798 h -0.05599 c 0.04454,-0.340546 0.243423,-0.728518 0.503892,-0.951798 m 0.391917,0.111977 0.05599,0.05599 -0.05599,-0.05599 m -1.73563,0.167964 0.05599,0.05599 -0.05599,-0.05599 m -7.838327,0.167965 0.05599,0.335927 h 0.05599 l -0.111981,-0.335931 m 3.415272,1.287725 0.05599,0.05599 -0.05599,-0.05599 m 0.05599,0.111975 -0.167965,0.111977 0.167965,0.503892 h 0.05599 c 0.03658,-0.109742 0.05599,-0.142993 0.05599,0 h 0.05599 l -0.167964,-0.615869 m 0.167964,0.783834 0.05599,0.503892 h 0.05599 l -0.111977,-0.503892 m 4.702997,0.05599 v 0.05599 l -0.615869,0.783833 c 0.127497,-0.29588 0.291284,-0.738316 0.615869,-0.839821 m -1.903593,0.167965 -0.05599,0.27994 h 0.05599 v -0.27994 m 0,0.615869 -0.279941,0.783832 h 0.05599 l 0.279942,-0.391917 0.05599,-0.391915 H 17.06735 m -5.934733,1.95958 v 0.167965 l -0.167965,-0.05599 v -0.05599 l 0.167965,-0.05599 m 0.335927,0 0.05599,0.167964 z"
     style="fill:currentColor;" class="ColorScheme-Text" />
</svg>
