<?xml version="1.0" encoding="UTF-8" standalone="no"?>
<svg
  viewBox="294 159 16 15.999999"
  version="1.1"
  id="svg5"
  width="16"
  height="16"
  inkscape:version="1.4.3 (0d15f75042, 2025-12-25)"
  xmlns:inkscape="http://www.inkscape.org/namespaces/inkscape"
  xmlns:sodipodi="http://sodipodi.sourceforge.net/DTD/sodipodi-0.dtd"
  xmlns="http://www.w3.org/2000/svg"
  xmlns:svg="http://www.w3.org/2000/svg">

  <!-- Definições de cores simbólicas do KDE/Plasma -->
  <defs>
    <style id="current-color-scheme" type="text/css">
      .ColorScheme-Text { color:#dfdfdf; }
    </style>
  </defs>

  <path
    style="fill:currentColor"
    class="ColorScheme-Text"
    d="M 609.59205 158.99977 C 605.62745 158.98727 602.21137 159.08637 599.84462 159.45314 C 582.51162 162.25314 561.69413 171.37496 547.02713 182.57496 C 502.62713 216.30896 468.16612 287.87026 453.63312 377.07026 C 448.16612 410.80326 444.56574 457.62641 444.56574 493.35941 C 444.56574 535.49341 449.51302 589.4489 456.58002 626.6499 C 457.98002 633.88265 458.66533 640.4168 458.39349 642.29113 L 458.39349 642.51782 L 458.39349 642.7445 L 458.16681 642.7445 C 457.63381 643.2775 451.21968 648.66509 443.88568 654.53209 C 418.81968 674.53209 390.17291 705.2853 370.43991 733.4183 C 332.57291 787.1523 307.94118 848.17853 297.67418 914.31253 C 293.67418 940.44553 292.6607 993.3593 295.8607 1019.4941 C 302.9277 1079.7641 321.01146 1130.5966 352.07846 1177.2666 L 362.27926 1192.2277 L 359.33237 1197.2148 C 338.53237 1232.1448 320.90236 1282.6453 312.63536 1331.1853 C 306.10236 1369.5853 305.15477 1379.9099 305.15477 1431.3799 C 305.15477 1483.2499 305.8213 1493.4376 311.9553 1529.3076 C 319.2883 1572.2376 334.27804 1617.8203 350.94504 1648.0903 C 356.41204 1657.9503 369.74664 1678.5394 371.34664 1679.5994 L 371.34664 1679.8261 L 371.34664 1680.0528 C 371.16409 1681.582 369.77775 1685.8165 367.71969 1690.4803 C 348.51969 1732.4803 332.12969 1788.2617 325.32969 1835.3317 C 320.52969 1867.6017 319.88926 1877.951 319.88926 1911.951 C 319.88926 1955.281 322.38317 1976.4822 331.45017 2011.0122 L 332.58359 2015.9992 L 389.70809 2015.9992 L 446.83258 2015.9992 L 443.20563 2008.972 C 420.13863 1966.302 417.8992 1887.1895 437.7652 1808.1295 C 446.8322 1771.5895 457.10157 1744.6383 476.30157 1707.7083 L 487.86248 1685.4932 L 487.86248 1671.6655 C 487.86248 1658.8655 487.68947 1657.397 483.55547 1648.997 C 480.35547 1642.597 475.96761 1637.1888 468.36761 1629.7288 C 455.43361 1617.1888 446.13894 1603.8255 438.67194 1587.5655 C 405.87194 1516.3655 399.51034 1410.6612 422.57734 1320.5312 C 432.17734 1282.9312 448.07466 1249.4775 464.74066 1231.2175 C 476.07466 1218.6775 481.96868 1204.7176 481.96868 1190.1876 C 481.96868 1175.1176 476.51397 1162.7677 464.51397 1149.8377 C 430.11397 1113.0377 408.869 1068.2239 401.269 1016.0939 C 390.469 941.82175 410.23354 860.79628 454.76654 796.66328 C 498.36654 733.72928 559.5535 693.43997 627.9535 682.64097 C 643.2875 680.10697 671.79821 680.38803 687.79821 683.32103 C 705.26521 686.38803 716.268 685.48144 727.468 680.14744 C 741.335 673.61444 748.34961 665.49182 756.48361 646.82482 C 763.68361 630.15782 769.29981 621.19466 784.36581 602.39466 C 802.49981 579.86066 819.83747 564.48322 847.83747 545.95022 C 879.83747 525.01622 916.29871 509.75979 952.56571 502.42679 C 965.76571 499.75979 971.8755 499.4799 996.5425 499.4799 C 1021.2085 499.4799 1027.3193 499.75979 1040.5193 502.42679 C 1093.7193 513.22679 1146.631 540.79321 1188.771 579.72621 C 1197.831 588.12621 1219.4706 614.99653 1226.4006 626.19653 C 1229.0706 630.59653 1233.6614 639.89182 1236.6014 646.82482 C 1244.7314 665.49182 1251.747 673.61444 1265.617 680.14744 C 1276.417 685.34744 1287.8067 686.34771 1304.6067 683.54771 C 1331.1467 679.01471 1351.3725 679.57482 1377.3725 684.90782 C 1465.9025 702.77482 1543.1782 775.54964 1577.3082 873.28264 C 1607.0382 959.01664 1598.4464 1048.8918 1554.1864 1117.4218 C 1546.7164 1129.0218 1539.371 1138.3677 1528.571 1149.8377 C 1505.241 1174.7677 1505.1443 1205.6175 1528.3443 1231.2175 C 1566.4743 1272.9475 1590.402 1375.7593 1583.202 1466.2893 C 1578.402 1526.0193 1563.0154 1579.2839 1541.9454 1609.5539 C 1538.2154 1614.8839 1530.5774 1624.1288 1524.7174 1629.7288 C 1517.1174 1637.1888 1512.7295 1642.597 1509.5295 1648.997 C 1505.3995 1657.397 1505.2225 1658.8655 1505.2225 1671.6655 L 1505.2225 1685.4932 L 1516.7834 1707.7083 C 1535.9834 1744.6383 1546.2498 1771.5895 1555.3198 1808.1295 C 1574.9198 1886.1295 1573.1861 1963.7086 1550.7861 2007.8386 C 1548.9161 2011.5686 1547.1592 2014.9192 1547.1592 2015.3192 C 1547.1592 2015.7192 1572.6303 2015.9992 1603.8303 2015.9992 L 1660.5014 2015.9992 L 1661.8615 2010.3321 C 1662.6615 2007.2721 1663.9117 2002.5746 1664.5817 1999.9046 C 1666.0417 1994.0446 1668.9823 1976.6681 1671.3823 1960.0081 C 1673.6423 1943.2081 1673.6423 1881.4305 1671.3823 1862.7605 C 1662.8423 1795.0305 1648.7053 1741.2803 1625.3653 1690.4803 C 1623.3097 1685.8165 1621.9224 1681.3553 1621.7384 1679.8261 L 1621.7384 1679.5994 C 1622.4084 1679.1994 1626.1257 1673.8118 1630.1257 1667.8118 C 1659.1957 1623.8118 1677.0568 1568.3749 1686.1168 1495.3049 C 1688.5168 1475.1749 1688.5168 1388.825 1686.1168 1369.495 C 1679.7168 1319.625 1671.9413 1285.6624 1659.1413 1251.3924 C 1653.8113 1237.1224 1639.7526 1206.9448 1633.7526 1197.2148 L 1630.8057 1192.2277 L 1641.0065 1177.2666 C 1672.0765 1130.5966 1690.1543 1079.7641 1697.2243 1019.4941 C 1700.4243 993.3593 1699.4108 940.44553 1695.4108 914.31253 C 1685.0108 848.04553 1660.5051 787.2853 1622.6451 733.4183 C 1602.9051 705.2853 1574.2693 674.53209 1549.1993 654.53209 C 1541.8693 648.66509 1535.4482 643.2775 1534.9182 642.7445 L 1534.6915 642.7445 L 1534.6915 642.51782 L 1534.6915 642.29113 C 1534.4177 640.4168 1535.105 633.88265 1536.505 626.6499 C 1552.645 542.5159 1552.0749 437.53524 1535.1449 355.53524 C 1520.4749 284.06824 1493.8323 227.16256 1459.4323 194.36256 C 1431.9623 168.22956 1403.9452 157.09346 1370.3452 159.22646 C 1293.2752 163.75946 1231.209 252.52513 1206.679 392.25813 C 1202.679 414.79213 1199.1984 441.0492 1199.1984 448.2492 C 1199.1984 449.9992 1198.8372 451.87293 1198.5184 452.78289 L 1198.5184 453.00957 L 1198.2917 453.23626 L 1198.065 453.23626 L 1198.065 453.46294 L 1197.8383 453.46294 L 1197.6117 453.23626 C 1196.0909 452.68039 1191.4041 450.25971 1186.5041 447.34246 C 1127.0441 412.14246 1060.9385 393.39155 996.5425 393.39155 C 932.1425 393.39155 866.04789 412.14246 806.58089 447.34246 C 801.68089 450.25971 796.76537 452.90707 795.24666 453.46294 L 795.01998 453.46294 L 795.01998 453.23626 L 794.79329 453.23626 L 794.56661 453.00957 L 794.56661 452.78289 L 794.33992 452.5562 C 794.02088 451.64624 793.88655 449.9992 793.88655 448.2492 C 793.88655 440.7822 790.27197 413.72513 786.40597 392.25813 C 764.13897 266.79213 713.04752 183.55973 645.18152 162.62673 C 638.18102 160.52673 621.48588 159.03723 609.59205 158.99977 z M 615.03248 264.18138 L 615.25917 264.18138 L 615.48585 264.18138 C 615.58751 264.17438 616.06432 264.18045 616.16591 264.18138 L 616.39259 264.18138 C 617.93763 264.45699 619.70057 265.78502 622.51307 268.03502 C 641.71307 283.23502 663.06356 326.81747 675.33056 375.48347 C 677.59756 384.28347 680.10499 394.41892 680.77099 398.15192 C 681.30499 401.75192 682.74457 409.793 683.94457 416.06 C 689.14457 444.327 691.38484 474.74754 691.65184 511.94754 L 691.87853 548.67043 L 682.58446 562.2715 L 673.51708 576.09926 L 651.98206 576.09926 C 626.91506 576.09926 601.94991 579.22001 578.08291 585.62001 C 569.54991 587.75301 561.32146 589.98038 559.72146 590.38038 L 559.49478 590.38038 C 559.19153 590.38838 558.78021 590.37438 558.58804 590.38038 L 558.36136 590.38038 L 558.13467 590.38038 L 558.13467 590.1537 L 557.90799 590.1537 L 557.6813 590.1537 L 557.6813 589.92701 L 557.45462 589.70033 L 557.45462 589.47364 C 556.73511 588.16991 556.23965 585.19597 555.41446 579.04616 C 547.54746 519.71216 547.88088 453.95235 556.54788 399.28535 C 566.14788 338.35235 588.63179 283.1686 610.49879 266.9016 C 612.48942 265.42164 613.80127 264.45147 615.03248 264.18138 z M 1376.239 264.18138 L 1376.4657 264.18138 L 1376.6924 264.18138 L 1376.9191 264.18138 L 1377.1458 264.18138 L 1377.3725 264.18138 C 1378.8313 264.30868 1380.4706 265.37047 1382.8129 267.12828 C 1396.0129 276.86128 1410.5493 302.74768 1421.3493 335.81368 C 1443.0893 401.94768 1449.1405 492.64616 1437.6705 579.04616 C 1436.8493 585.19597 1436.3504 588.39659 1435.6304 589.70033 L 1435.4037 589.92701 L 1435.4037 590.1537 L 1435.177 590.1537 L 1434.9503 590.1537 L 1434.9503 590.38038 L 1434.7236 590.38038 L 1434.497 590.38038 L 1434.2703 590.38038 C 1434.1418 590.37638 1433.7451 590.37138 1433.5902 590.38038 L 1433.3635 590.38038 C 1431.7635 589.98038 1423.5421 587.75301 1415.0021 585.62001 C 1391.1421 579.22001 1366.1629 576.09926 1341.1029 576.09926 L 1319.5679 576.09926 L 1310.5005 562.2715 L 1301.2065 548.67043 L 1301.4332 511.94754 C 1301.7032 460.21454 1306.5111 419.9641 1317.9811 375.0301 C 1330.1111 326.7641 1351.5119 283.23502 1370.5719 268.03502 C 1373.1969 265.93502 1374.7672 264.55619 1376.239 264.18138 z M 975.91421 938.11441 C 946.98121 940.91441 939.00388 942.11494 925.13688 944.91494 C 902.60388 949.58194 872.6251 959.80992 851.6911 970.07692 C 778.8911 1005.6779 728.74656 1065.0731 713.41356 1133.7431 C 710.34656 1147.3431 709.7866 1151.833 709.7866 1174.773 C 709.7866 1197.433 710.25387 1202.4196 713.18687 1215.3496 C 733.58687 1305.0796 816.16372 1371.4195 923.09672 1383.5495 C 946.29672 1386.0895 1046.7883 1386.0895 1069.9883 1383.5495 C 1155.8483 1373.8195 1229.6968 1327.1599 1262.8968 1261.8199 C 1271.6968 1244.3599 1275.8981 1233.0796 1279.8981 1215.3496 C 1282.8281 1202.4196 1283.2984 1197.433 1283.2984 1174.773 C 1283.2984 1151.833 1282.7414 1147.3431 1279.6714 1133.7431 C 1257.4114 1034.0131 1160.7761 955.54094 1042.1061 940.60794 C 1026.6361 938.74094 986.04721 937.04741 975.91421 938.11441 z M 639.74109 950.80874 C 633.04109 950.89211 626.43302 951.76927 621.83302 953.30227 C 598.23302 960.76927 580.57606 978.05448 571.50906 1002.7195 C 567.10906 1014.4595 565.10837 1033.0693 566.97537 1043.0693 C 571.37537 1066.9393 590.95301 1088.5267 613.21901 1094.5267 C 641.21901 1101.8567 662.23799 1097.0588 680.77099 1078.6588 C 691.57099 1068.1288 697.34675 1058.9061 703.21275 1043.9761 C 707.47975 1033.4361 707.74644 1031.7139 707.74644 1016.7739 L 707.97313 1000.6793 L 702.30602 989.3451 C 693.37302 971.2121 677.22191 957.55521 658.55591 952.62221 C 653.28891 951.28871 646.44109 950.72536 639.74109 950.80874 z M 1352.2105 950.80874 C 1345.543 950.80874 1338.9407 951.5159 1334.0757 952.8489 C 1315.8057 957.7829 1299.449 971.4791 1290.779 989.3451 L 1285.1119 1000.6793 L 1285.3386 1016.7739 C 1285.3386 1031.7139 1285.6022 1033.4361 1289.8722 1043.9761 C 1295.7322 1058.9061 1301.514 1068.1288 1312.314 1078.6588 C 1330.844 1097.0588 1351.866 1101.8567 1379.866 1094.5267 C 1395.996 1090.2567 1412.2491 1076.6107 1419.9891 1060.7507 C 1426.6491 1047.2807 1428.2396 1037.5544 1426.1096 1022.2144 C 1421.1796 987.14936 1400.6486 961.7829 1370.1186 952.8489 C 1365.6536 951.5159 1358.878 950.80874 1352.2105 950.80874 z M 1025.7848 1010.6534 C 1065.3848 1014.9234 1105.3136 1029.2099 1137.3136 1050.5499 C 1154.5136 1062.0099 1178.5976 1085.8139 1188.9976 1101.5539 C 1201.7976 1121.0139 1209.2428 1140.8956 1212.5728 1165.0256 C 1214.0428 1176.0956 1213.1726 1184.5585 1209.1726 1202.4285 C 1202.9026 1229.0885 1183.5318 1257.0844 1157.2618 1276.5544 C 1144.9918 1285.4844 1119.591 1298.2331 1103.991 1303.3031 C 1074.391 1312.7731 1054.9513 1314.4873 985.88833 1313.9573 C 940.82133 1313.5573 932.85614 1313.1837 919.92314 1310.7837 C 875.79014 1302.5137 840.75458 1284.9929 815.42158 1258.1929 C 794.88858 1236.5929 785.57817 1216.8438 780.51217 1184.9738 C 778.24517 1170.1738 782.50034 1145.5724 791.16634 1124.9024 C 801.70034 1099.7024 828.83842 1068.5499 855.77142 1050.5499 C 886.97142 1029.7499 928.20709 1014.8801 965.94009 1010.8801 C 980.47309 1009.2801 1011.2548 1009.1934 1025.7848 1010.6534 z M 960.49966 1105.4076 C 953.16666 1105.4076 949.13849 1106.2578 945.53849 1108.1278 C 935.40549 1113.5878 928.44431 1127.3268 930.57731 1137.5968 C 932.97731 1148.6568 942.57945 1159.9059 957.77945 1169.1059 C 965.91245 1174.0459 966.44683 1174.8201 966.84683 1179.7601 C 967.11383 1182.6901 966.04598 1190.8782 964.57998 1198.3482 C 962.97998 1205.6782 961.85977 1213.4362 961.85977 1215.5762 C 961.99277 1221.3062 967.36731 1230.7578 972.96731 1235.2978 C 977.90131 1239.2978 978.82186 1239.4315 992.68886 1239.8315 C 1005.3519 1240.2315 1008.0205 1239.9646 1013.0905 1237.5646 C 1026.1505 1231.1646 1029.4514 1219.2914 1024.6514 1196.7614 C 1020.6514 1177.9614 1021.4519 1175.0626 1031.4519 1169.3326 C 1041.9819 1163.2026 1053.2839 1152.4174 1056.6139 1145.0774 C 1063.0139 1131.0774 1057.1528 1115.2411 1043.0128 1107.9011 C 1039.5528 1106.1711 1035.2284 1105.4076 1028.9584 1105.4076 C 1019.2284 1105.4076 1012.9896 1107.5983 1001.5296 1114.9283 L 994.95571 1119.0086 L 990.87539 1116.5151 C 973.94239 1106.5151 970.76666 1105.2776 960.49966 1105.4076 z "
    transform="matrix(0.00861605,0,0,0.00861605,293.41374,157.63005)" />
  <defs
    id="defs5">
    <clipPath
      id="clip0_1758_1066">
      <rect
        width="5849.3301"
        height="2016"
        fill="currentColor"
        id="rect5"
        x="0"
        y="0" />
      </clipPath>
    </defs>
  </svg>
