<svg xmlns="http://www.w3.org/2000/svg" width="22" height="22">
 <defs>
  <style id="current-color-scheme" type="text/css">
   .ColorScheme-Text { color:#dfdfdf; }
  </style>
 </defs>
    <path style="fill:currentColor" class="ColorScheme-Text" d="M11 2a3.414 3.414 0 0 0-3.414 3.414 3.41 3.41 0 0 0 .9 2.309L7.265 8.94a2.92 2.92 0 0 0-1.956-.753 2.916 2.916 0 0 0-2.916 2.916A2.916 2.916 0 0 0 5.31 14.02a2.92 2.92 0 0 0 1.962-.759l1.365 1.366a3.2 3.2 0 0 0-.843 2.167A3.206 3.206 0 0 0 11 20a3.206 3.206 0 0 0 3.206-3.206 3.2 3.2 0 0 0-.836-2.16l1.366-1.366a2.92 2.92 0 0 0 1.954.752 2.916 2.916 0 0 0 2.916-2.916 2.916 2.916 0 0 0-2.916-2.916 2.92 2.92 0 0 0-1.97.767l-1.218-1.218a3.41 3.41 0 0 0 .912-2.323A3.414 3.414 0 0 0 11 2m0 .166a3.25 3.25 0 0 1 3.248 3.248 3.25 3.25 0 0 1-.864 2.205l-.285-.285a2.85 2.85 0 0 0 .746-1.92A2.845 2.845 0 0 0 11 2.569a2.845 2.845 0 0 0-2.845 2.845 2.85 2.85 0 0 0 .733 1.906l-.285.285a3.25 3.25 0 0 1-.85-2.191A3.25 3.25 0 0 1 11 2.166M9.088 7.521A2.85 2.85 0 0 0 11 8.259a2.85 2.85 0 0 0 1.898-.726l.285.286A3.25 3.25 0 0 1 11 8.662a3.25 3.25 0 0 1-2.197-.856Zm-.403.403A3.41 3.41 0 0 0 11 8.828a3.41 3.41 0 0 0 2.3-.892l1.22 1.22a2.9 2.9 0 0 0-.742 1.79H8.222a2.9 2.9 0 0 0-.755-1.804ZM5.31 8.33a2.77 2.77 0 0 1 1.856.712l-.353.353a2.28 2.28 0 0 0-1.503-.567 2.276 2.276 0 0 0-2.276 2.276A2.276 2.276 0 0 0 5.31 13.38a2.28 2.28 0 0 0 1.508-.572l.353.353a2.77 2.77 0 0 1-1.86.717 2.774 2.774 0 0 1-2.775-2.774A2.774 2.774 0 0 1 5.31 8.33m11.38 0a2.774 2.774 0 0 1 2.774 2.774 2.774 2.774 0 0 1-2.774 2.774 2.77 2.77 0 0 1-1.854-.71l.353-.353a2.28 2.28 0 0 0 1.5.565 2.276 2.276 0 0 0 2.277-2.276 2.276 2.276 0 0 0-2.276-2.276 2.28 2.28 0 0 0-1.518.58l-.352-.353a2.77 2.77 0 0 1 1.87-.725m-9.323.912a2.77 2.77 0 0 1 .713 1.705h-.5a2.28 2.28 0 0 0-.566-1.352Zm7.254.015.352.352a2.28 2.28 0 0 0-.554 1.338h-.499a2.77 2.77 0 0 1 .7-1.69M7.582 11.23h.5a2.77 2.77 0 0 1-.71 1.73l-.354-.353a2.28 2.28 0 0 0 .564-1.377m.641 0h5.554a2.92 2.92 0 0 0 .758 1.838l-1.365 1.365a3.2 3.2 0 0 0-2.17-.846 3.2 3.2 0 0 0-2.163.84L7.472 13.06a2.92 2.92 0 0 0 .751-1.83m5.696 0h.499a2.28 2.28 0 0 0 .57 1.385l-.352.353a2.77 2.77 0 0 1-.717-1.738M11 13.743a3.05 3.05 0 0 1 2.06.8l-.347.348A2.56 2.56 0 0 0 11 14.233a2.56 2.56 0 0 0-1.705.65l-.347-.346A3.05 3.05 0 0 1 11 13.743m-2.253.994.347.347a2.56 2.56 0 0 0-.654 1.71 2.56 2.56 0 0 0 2.56 2.56 2.56 2.56 0 0 0 2.56-2.56 2.56 2.56 0 0 0-.647-1.703l.347-.346a3.05 3.05 0 0 1 .79 2.049 3.05 3.05 0 0 1-3.05 3.05 3.05 3.05 0 0 1-3.05-3.05 3.05 3.05 0 0 1 .797-2.057"/>
</svg>
