<svg width="22" height="22" viewBox="0 0 22 22" xmlns="http://www.w3.org/2000/svg">
  <defs>
    <style type="text/css" id="current-color-scheme">.ColorScheme-Text { color: #fcfcfc; } </style>
  </defs>
  <path fill="currentColor" d="M11 3a8 8 0 0 0-2 .266V4.31c-.456.137-.9.32-1.316.545l-.74-.74c-1.167.688-2.14 1.66-2.828 2.828l.521.522.219.218c-.227.42-.41.86-.547 1.317h-1.05a8 8 0 0 0 0 4h1.05c.137.457.32.898.547 1.317l-.74.74c.688 1.167 1.661 2.14 2.828 2.828l.74-.74c.42.227.86.41 1.317.547v1.05a8 8 0 0 0 4 0v-1.05c.456-.137.898-.32 1.316-.547l.74.74c1.167-.688 2.14-1.661 2.828-2.828l-.74-.74c.226-.42.409-.86.545-1.317h1.049a8 8 0 0 0 0-4h-1.05c-.137-.456-.32-.898-.546-1.316l.74-.74c-.688-1.167-1.66-2.14-2.828-2.828l-.74.74c-.42-.226-.86-.409-1.317-.545V3.266A8 8 0 0 0 11 3zm0 1c.335 0 .67.027 1 .076V5.086c.89.153 1.735.505 2.47 1.03l.65-.65c.538.401 1.015.876 1.417 1.413l-.65.65c.523.736.873 1.582 1.024 2.471h.914c.05.33.076.664.076 1s-.026.67-.076 1h-.914c-.15.89-.5 1.735-1.024 2.47l.65.65c-.402.537-.879 1.014-1.417 1.416l-.65-.65c-.736.523-1.58.873-2.47 1.023V17.924c-.33.05-.665.076-1 .076s-.67-.026-1-.076v-.914c-.89-.15-1.735-.5-2.47-1.024l-.65.65c-.537-.402-1.014-.879-1.416-1.417l.65-.65c-.523-.736-.874-1.58-1.024-2.47h-.914a7 7 0 0 1 0-2h.914c.15-.89.5-1.735 1.024-2.47l-.65-.65c.402-.537.879-1.014 1.416-1.417l.65.65c.735-.525 1.58-.877 2.47-1.03V4.076c.33-.05.665-.076 1-.076zm0 4.113A2.887 2.887 0 0 0 8.113 11 2.887 2.887 0 0 0 11 13.887 2.887 2.887 0 0 0 13.887 11 2.887 2.887 0 0 0 11 8.113zm0 .889A1.997 1.997 0 0 1 12.998 11 1.997 1.997 0 0 1 11 12.998 1.997 1.997 0 0 1 9.002 11 1.997 1.997 0 0 1 11 9.002z" style="fill:currentColor;" class="ColorScheme-Text"/>
</svg>
