<svg width="22" height="22" viewBox="0 0 22 22" xmlns="http://www.w3.org/2000/svg">
  <defs>
    <style type="text/css" id="current-color-scheme">.ColorScheme-Text { color: #fcfcfc; } </style>
  </defs>
  <path d="M5 3c-1 0-1 1-1 1v14c0 0 0 1 1 1h8v-4.436c-.63.282-1.31.43-2 .436H6v-5c0-2.761 2.239-5 5-5s5 2.239 5 5c-.006 1.084-.363 2.137-1.02 3H18V4c0 0 0-1-1-1H5zm6 4a3 3 0 1 0 0 6 3 3 0 0 0 0-6zm6.506 7a3.498 3.498 0 1 0 0 7 3.498 3.498 0 0 0 0-7zm-.7 0.7h1.4v1.4h-1.4v-1.4zm0 2.1h1.4v2.8h-1.4v-2.8z" style="fill:currentColor;" class="ColorScheme-Text"/>
</svg>
