<?xml version="1.0" encoding="UTF-8" standalone="no"?>
<!-- Created with Inkscape (http://www.inkscape.org/) -->

<svg
   version="1.1"
   id="svg1"
   width="24"
   height="24"
   viewBox="0 0 24 24"
   sodipodi:docname="bigsettings-outro.svg"
   xml:space="preserve"
   inkscape:version="1.4.2 (ebf0e940d0, 2025-05-08)"
   inkscape:export-filename="pipewire6.svg"
   inkscape:export-xdpi="960"
   inkscape:export-ydpi="960"
   xmlns:inkscape="http://www.inkscape.org/namespaces/inkscape"
   xmlns:sodipodi="http://sodipodi.sourceforge.net/DTD/sodipodi-0.dtd"
   xmlns="http://www.w3.org/2000/svg"
   xmlns:svg="http://www.w3.org/2000/svg"><defs
     id="defs1"><linearGradient
       x1="22.1875"
       y1="23.0625"
       x2="5.318624"
       y2="5.3239861"
       gradientUnits="userSpaceOnUse"
       spreadMethod="pad"
       id="linearGradient3-6"><stop
         style="stop-color:#1f3262;stop-opacity:1;"
         offset="0"
         id="stop1-2" /><stop
         style="stop-color:#1f3262;stop-opacity:1;"
         offset="1"
         id="stop1" /><stop
         style="stop-color:#314da3;stop-opacity:1;"
         offset="1"
         id="stop2-9" /><stop
         style="stop-color:#0066ff;stop-opacity:1"
         offset="1"
         id="stop3-1" /></linearGradient><clipPath
       clipPathUnits="userSpaceOnUse"
       id="clipPath1"><path
         d="M 4.4844945,5.7612647 H 19.556145 V 20.768195 H 4.4844945 Z m 0,0"
         clip-rule="nonzero"
         id="path1"
         style="stroke-width:0.0862932" /></clipPath><clipPath
       clipPathUnits="userSpaceOnUse"
       id="clipPath2"><path
         d="M 4.4844945,5.7612647 H 19.556145 V 20.768195 H 4.4844945 Z m 0,0"
         clip-rule="nonzero"
         id="path4"
         style="stroke-width:0.0862935" /></clipPath><clipPath
       clipPathUnits="userSpaceOnUse"
       id="clipPath22"><path
         d="m 12.383021,3.7903004 h 5.587132 V 18.520015 h -5.587132 z m 0,0"
         clip-rule="nonzero"
         id="path24"
         style="stroke-width:0.0846535" /></clipPath><clipPath
       clipPathUnits="userSpaceOnUse"
       id="clipPath30"><path
         d="M 7.5577693,9.8853545 H 10.182029 V 11.493772 H 7.5577693 Z m 0,0"
         clip-rule="nonzero"
         id="path31"
         style="stroke-width:0.0846535" /></clipPath><clipPath
       clipPathUnits="userSpaceOnUse"
       id="clipPath31"><path
         d="M 5.8646987,3.1130721 H 9.2508399 V 10.393276 H 5.8646987 Z m 0,0"
         clip-rule="nonzero"
         id="path33"
         style="stroke-width:0.0846535" /></clipPath><clipPath
       clipPathUnits="userSpaceOnUse"
       id="clipPath33"><path
         d="m 8.2349975,10.901197 h 4.5712905 v 8.042085 H 8.2349975 Z m 0,0"
         clip-rule="nonzero"
         id="path34"
         style="stroke-width:0.0846535" /></clipPath></defs><sodipodi:namedview
     id="namedview1"
     pagecolor="#ffffff"
     bordercolor="#000000"
     borderopacity="0.25"
     inkscape:showpageshadow="2"
     inkscape:pageopacity="0.0"
     inkscape:pagecheckerboard="0"
     inkscape:deskcolor="#d1d1d1"
     inkscape:zoom="19.231119"
     inkscape:cx="6.4478826"
     inkscape:cy="0.51999053"
     inkscape:window-width="2560"
     inkscape:window-height="1371"
     inkscape:window-x="0"
     inkscape:window-y="0"
     inkscape:window-maximized="1"
     inkscape:current-layer="svg1"><inkscape:page
       x="0"
       y="0"
       inkscape:label="1"
       id="page1"
       width="24"
       height="24"
       margin="0"
       bleed="0" /></sodipodi:namedview><path
     id="path3"
     d="m 7.5986665,0.99999997 h 8.8026665 c 3.656,0 6.598666,2.94266663 6.598666,6.59866653 v 8.8026665 c 0,3.656 -2.942666,6.598666 -6.598666,6.598666 H 7.5986665 c -3.6559999,0 -6.59866653,-2.942666 -6.59866653,-6.598666 V 7.5986665 c 0,-3.6559999 2.94266663,-6.59866653 6.59866653,-6.59866653 z"
     style="fill:url(#linearGradient3-6);stroke:none;stroke-width:1.33333" /><path
     fill="#fd7204"
     d="m 16.561279,13.439455 c 0.0018,-0.05548 0.04381,-0.121059 0.09332,-0.145945 l 1.00684,-0.504198 c 0.04951,-0.02489 0.08295,-0.08995 0.07414,-0.144649 L 17.503572,11.57483 c -0.01504,-0.05366 -0.07232,-0.100061 -0.1278,-0.103691 L 16.230764,11.397 c -0.05522,-0.0036 -0.121059,-0.04692 -0.146205,-0.09643 l -0.155536,-0.28619 c -0.028,-0.04796 -0.02774,-0.126244 7.76e-4,-0.173942 l 0.578078,-0.9746955 c 0.02826,-0.047698 0.02152,-0.1208002 -0.01504,-0.1625358 L 15.713864,8.908674 C 15.672904,8.871345 15.599545,8.862791 15.551069,8.88975 l -0.996212,0.5529325 c -0.04848,0.02696 -0.127022,0.025404 -0.17446,-0.00337 L 14.111319,9.2863687 c -0.04899,-0.025923 -0.09073,-0.092544 -0.0928,-0.1480189 l -0.04096,-1.1421572 c -0.0018,-0.055216 -0.04692,-0.1138009 -0.100062,-0.129873 L 12.79859,7.6081288 c -0.0547,-0.00985 -0.1208,0.022034 -0.146982,0.071028 L 12.115784,8.676406 c -0.02618,0.048994 -0.07077,0.088397 -0.09877,0.087878 h -0.0254 c -0.155537,0 -0.360067,0.015554 -0.360067,0.015554 -0.05522,0.00415 -0.126503,-0.029811 -0.158129,-0.075435 L 10.81835,7.7613324 c -0.03163,-0.045365 -0.101099,-0.07051 -0.1545,-0.055734 L 9.6331608,8.0532227 c -0.051327,0.020738 -0.089952,0.082953 -0.085545,0.1381683 l 0.087878,1.1209004 c 0.00415,0.055216 -0.03033,0.125207 -0.076991,0.1552774 L 9.2308394,9.694393 C 9.1862524,9.727315 9.1079656,9.737166 9.0568977,9.715909 L 7.9956197,9.276518 C 7.9445517,9.255261 7.8722273,9.271588 7.8351577,9.31281 L 7.173868,10.133006 c -0.032663,0.04485 -0.031626,0.117949 0.00181,0.162017 l 0.6768434,0.891225 c 0.03344,0.04407 0.041736,0.121319 0.018405,0.171868 l -0.1840516,0.440428 c -0.019442,0.05185 -0.079842,0.102395 -0.1345392,0.112245 l -1.1258257,0.203235 c -0.054438,0.0099 -0.1062833,0.06273 -0.1148378,0.117689 0,0 -0.1101718,0.692138 -0.1101718,1.105347 v 0.0023 c 0,0.0023 0.042773,0.01996 0.094618,0.03888 l 1.0506497,0.383917 c 0.052105,0.01892 0.1010987,0.07932 0.1088756,0.13428 l 0.098507,0.53686 c 0.012184,0.05418 -0.010888,0.129355 -0.051327,0.167202 L 6.6707068,15.37537 c -0.040699,0.03785 -0.055215,0.109913 -0.032144,0.160462 l 0.4536484,0.879819 c 0.027997,0.04796 0.095136,0.07725 0.1493152,0.06507 l 1.0960144,-0.246266 c 0.053919,-0.01218 0.1283177,0.01192 0.1648689,0.0534 l 0.4041359,0.420208 c 0.039921,0.03837 0.061696,0.113541 0.047957,0.167201 l -0.278929,1.093682 c -0.013739,0.05366 0.013221,0.121837 0.060141,0.151648 l 0.8557106,0.482163 c 0.049513,0.02463 0.1218369,0.01244 0.1609803,-0.02696 l 0.7934955,-0.804383 c 0.03888,-0.0394 0.114579,-0.06014 0.168239,-0.04563 l 0.564079,0.125467 c 0.0547,0.0096 0.113542,0.06066 0.13117,0.113282 l 0.354104,1.063352 c 0.01737,0.05262 0.07725,0.09695 0.132725,0.09851 0,0 0.02955,7.76e-4 0.09514,7.76e-4 0.340366,0 0.898223,-0.07284 0.898223,-0.07284 0.05496,-0.0073 0.109395,-0.05755 0.1208,-0.111727 l 0.234342,-1.113902 c 0.01141,-0.05418 0.06377,-0.113022 0.116394,-0.13065 l 0.496421,-0.1882 c 0.05081,-0.02177 0.127799,-0.01115 0.17109,0.02359 l 0.871004,0.701729 c 0.04303,0.03474 0.115876,0.03759 0.161759,0.0065 l 0.817604,-0.619814 c 0.04225,-0.03577 0.06066,-0.107579 0.04096,-0.159425 l -0.407765,-1.07061 c -0.0197,-0.05185 -0.0075,-0.129873 0.0267,-0.173164 l 0.269856,-0.368103 c 0.03137,-0.04588 0.101877,-0.07855 0.157092,-0.07258 l 1.11416,0.119764 c 0.05522,0.006 0.118208,-0.03111 0.139984,-0.08192 l 0.364992,-0.998026 c 0.01633,-0.05314 -0.007,-0.123393 -0.05159,-0.156314 L 16.60872,13.979187 C 16.56413,13.946267 16.53199,13.8742 16.53717,13.818984 Z m -4.5847,3.293487 c -1.863329,0 -3.3741074,-1.51052 -3.3741074,-3.374107 0,-1.863588 1.5105194,-3.3743662 3.3741074,-3.3743662 1.863587,0 3.374366,1.5107782 3.374366,3.3743662 0,1.863587 -1.510779,3.374107 -3.374366,3.374107 z m 0,0"
     fill-opacity="1"
     fill-rule="nonzero"
     id="path20-6-8"
     style="fill:#d5e5ff;fill-opacity:1;stroke-width:0.0663623"
     clip-path="url(#clipPath2)" /><path
     fill="#fd7204"
     d="m 17.971181,13.355742 c 0.0024,-0.07213 0.05697,-0.157417 0.12135,-0.189777 l 1.30923,-0.655627 c 0.06438,-0.03236 0.107866,-0.116968 0.09641,-0.188091 l -0.301688,-1.391142 c -0.01955,-0.06978 -0.09405,-0.130114 -0.166183,-0.134833 l -1.4889,-0.09641 c -0.0718,-0.0047 -0.157417,-0.06101 -0.190115,-0.125395 l -0.20225,-0.372139 c -0.0364,-0.06236 -0.03607,-0.16416 10e-4,-0.2261828 L 17.90174,8.7087175 c 0.03674,-0.062023 0.02798,-0.1570806 -0.01955,-0.211351 l -1.012933,-1.033159 c -0.05326,-0.04854 -0.148654,-0.059664 -0.211688,-0.024607 l -1.29541,0.7189977 c -0.06303,0.035057 -0.16517,0.033034 -0.226856,-0.00438 L 14.785411,7.9553373 C 14.721702,7.921629 14.667431,7.8349988 14.664735,7.7628631 L 14.611475,6.2776757 C 14.60912,6.2058771 14.550464,6.1296963 14.481362,6.1087972 L 13.078423,5.7730626 c -0.07113,-0.012809 -0.15708,0.028652 -0.191126,0.092361 l -0.69675,1.2967579 c -0.03405,0.063709 -0.09202,0.1149453 -0.128429,0.1142711 h -0.03303 c -0.20225,0 -0.468208,0.020225 -0.468208,0.020225 -0.0718,0.00539 -0.164497,-0.038765 -0.205621,-0.098091 L 10.503447,5.9722787 c -0.04112,-0.05899 -0.131463,-0.091687 -0.200902,-0.072473 L 8.9623037,6.351834 C 8.8955612,6.3788006 8.8453359,6.4597005 8.8510663,6.5314991 l 0.1142711,1.4575464 c 0.00539,0.071799 -0.039439,0.1628111 -0.1001136,0.2019127 L 8.439151,8.4859058 c -0.057978,0.04281 -0.1597772,0.055619 -0.2261826,0.027978 L 6.8329511,7.9425281 c -0.066405,-0.027641 -0.1604515,-0.0064 -0.2086544,0.047192 L 5.7643983,9.05625 c -0.042472,0.058315 -0.041124,0.1533727 0.00236,0.2106768 L 6.646881,10.425818 c 0.043484,0.0573 0.05427,0.157755 0.023933,0.223486 l -0.239329,0.572704 c -0.025281,0.06742 -0.1038216,0.133147 -0.1749461,0.145956 L 4.792588,11.632237 c -0.070788,0.01281 -0.138204,0.08157 -0.1493277,0.153036 0,0 -0.1432603,0.900012 -0.1432603,1.437322 v 0.003 c 0,0.003 0.055619,0.02596 0.1230353,0.05056 l 1.3661969,0.49922 c 0.067754,0.02461 0.1314623,0.103147 0.1415748,0.174609 l 0.1280915,0.698098 c 0.015843,0.07045 -0.014157,0.168205 -0.066742,0.217419 L 5.11012,15.873081 c -0.052922,0.04921 -0.071799,0.142924 -0.041798,0.208655 l 0.5898951,1.144059 c 0.036405,0.06236 0.1237093,0.100451 0.1941597,0.08461 L 7.277563,16.990174 c 0.070113,-0.01584 0.166856,0.01551 0.2143848,0.06944 l 0.5255121,0.546411 c 0.051911,0.04989 0.080226,0.147643 0.06236,0.217419 l -0.3627012,1.422153 c -0.017865,0.06978 0.017191,0.158429 0.078203,0.197193 l 1.1127107,0.626974 c 0.064383,0.03202 0.1584289,0.01618 0.2093284,-0.03506 l 1.0318102,-1.045968 c 0.05056,-0.05124 0.148991,-0.0782 0.218767,-0.05933 l 0.733492,0.163149 c 0.07113,0.01247 0.147643,0.07888 0.170565,0.147305 l 0.460455,1.382713 c 0.02258,0.06843 0.100451,0.126069 0.172586,0.128092 0,0 0.03843,10e-4 0.12371,10e-4 0.442589,0 1.167992,-0.09472 1.167992,-0.09472 0.07146,-0.0094 0.142249,-0.07483 0.15708,-0.145282 l 0.304723,-1.448446 c 0.01483,-0.07045 0.08292,-0.146968 0.151351,-0.16989 l 0.645513,-0.244722 c 0.06607,-0.02832 0.166182,-0.01449 0.222475,0.03067 l 1.132598,0.912483 c 0.05596,0.04517 0.150677,0.04888 0.21034,0.0084 l 1.06316,-0.805966 c 0.05495,-0.04652 0.07888,-0.139889 0.05326,-0.207305 l -0.530231,-1.392153 c -0.02562,-0.06742 -0.0098,-0.168878 0.03472,-0.225171 l 0.350903,-0.478658 c 0.04079,-0.05966 0.132474,-0.102136 0.204272,-0.09438 l 1.448783,0.155733 c 0.0718,0.0077 0.153709,-0.04045 0.182025,-0.106519 l 0.474612,-1.297769 c 0.02124,-0.0691 -0.0091,-0.160452 -0.06708,-0.203261 l -1.202374,-0.887208 c -0.05798,-0.04281 -0.09978,-0.136519 -0.09303,-0.208317 z m -5.961648,4.282638 c -2.4229518,0 -4.3874709,-1.964182 -4.3874709,-4.387471 0,-2.423289 1.964182,-4.3878075 4.3874709,-4.3878075 2.423289,0 4.387808,1.9645185 4.387808,4.3878075 0,2.423289 -1.964519,4.387471 -4.387808,4.387471 z m 0,0"
     fill-opacity="1"
     fill-rule="nonzero"
     id="path20-6"
     style="display:inline;fill:#aeaeae;fill-opacity:1;stroke-width:0.0862932"
     clip-path="url(#clipPath1)"
     transform="translate(-1.5536084e-6,-0.03125)" /><path
     fill="#000000"
     d="M 17.938077,6.6070143 C 18.051831,5.6582995 17.670229,4.7644773 16.996638,4.1844684 l -0.226514,1.8875091 c -0.0873,0.728814 -0.755269,1.2535998 -1.484083,1.1663008 L 14.883937,7.1899993 C 14.154793,7.1023697 13.630007,6.4344005 13.717636,5.7055865 L 13.94382,3.818408 c -0.791312,0.4040883 -1.373636,1.1821733 -1.487389,2.130888 -0.139546,1.1629941 0.465264,2.2436492 1.439771,2.7641362 l -1.25856,8.5371108 c 0,0 0.0081,-0.17943 -0.05545,0.376551 1.247979,0.149467 2.637449,-1.337121 2.637449,-1.337121 l 0.665591,-7.3377914 c 1.069413,-0.2754546 1.912972,-1.182504 2.052518,-2.345498 z"
     fill-opacity="1"
     fill-rule="nonzero"
     id="path21"
     style="fill:#dce8f2;fill-opacity:1;stroke:#000000;stroke-width:0.0846535;stroke-opacity:0.198311"
     clip-path="url(#clipPath22)"
     sodipodi:nodetypes="ccccccccccccccc" /><path
     fill="#000000"
     d="M 10.137057,10.48818 9.9859368,10.061275 C 9.9588211,9.9842272 9.873837,9.9435538 9.7964583,9.9706694 l -0.581993,0.2070046 -0.9437546,0.334315 -0.5823236,0.206674 c -0.077048,0.02712 -0.1173907,0.111769 -0.088622,0.188486 l 0.1507891,0.427236 c 0.027777,0.07705 0.1111078,0.11706 0.1881557,0.08994 l 2.1090631,-0.747332 c 0.07672,-0.02712 0.11673,-0.111769 0.08928,-0.188817"
     fill-opacity="1"
     fill-rule="nonzero"
     id="path23"
     style="fill:#0055d4;fill-opacity:1;stroke-width:0.0846535"
     clip-path="url(#clipPath30)" /><path
     fill="#000000"
     d="m 9.8791278,10.955097 -1.6345406,0.579348 c 0.1220202,0.403427 0.2883511,1.045603 0.2595821,1.505246 -0.033729,0.509243 0.197084,1.120006 0.4877498,1.894122 l 0.057869,0.15641 c 0.3154666,0.839262 0.2241375,0.578594 0.6912006,1.96347 0.0023,0.0083 0.1833963,0.111564 0.4257843,0.230277 0.280745,0.138554 0.592477,0.320946 1.366437,0.370068 0.391309,0.0083 0.75207,0.0012 1.144152,-0.0089 -0.0099,-0.0248 -0.900477,-2.570442 -1.185191,-3.420945 l -0.05324,-0.16038 c -0.260244,-0.783375 -0.466918,-1.402073 -0.813468,-1.776401 -0.31216,-0.33696 -0.587615,-0.941439 -0.7463399,-1.332301"
     fill-opacity="1"
     fill-rule="nonzero"
     id="path27"
     style="fill:#0055d4;fill-opacity:1;stroke-width:0.0846535"
     clip-path="url(#clipPath33)"
     sodipodi:nodetypes="ccccccccccccc" /><path
     fill="#000000"
     d="m 6.3600541,4.794569 c 0.081677,0.085646 0.1587253,0.167323 0.2370961,0.3789568 0.1240042,0.3362994 1.3742971,3.8600026 1.6302417,4.5977449 0.036044,0.1044942 0.028769,0.1600481 0.013558,0.2271757 L 8.161587,10.3321 8.2022604,10.31755 9.1463457,9.9825739 9.1856964,9.9683547 8.9152018,9.7596969 C 8.86064,9.7170395 8.819636,9.6790115 8.781608,9.574848 8.5144203,8.8334683 7.2641274,5.3100958 7.1516969,4.9764418 7.0786171,4.7631546 7.0875453,4.6517161 7.0964737,4.5336642 7.1027567,4.4490106 7.1093701,4.361381 7.0895295,4.2416756 7.0419119,3.9553086 6.6566723,3.3104868 6.6123614,3.2380683 6.5892139,3.1987177 6.5419269,3.1825144 6.4989389,3.197395 L 5.9834121,3.3802598 c -0.043319,0.01488 -0.069773,0.05853 -0.06349,0.1028409 0.012566,0.084653 0.1193747,0.8276866 0.2618969,1.0803244 0.059853,0.1061477 0.1197053,0.1699685 0.1782353,0.2311439"
     fill-opacity="1"
     fill-rule="nonzero"
     id="path32"
     style="fill:#dce8f2;fill-opacity:1;stroke:#000000;stroke-width:0.0846535;stroke-opacity:0.198311"
     clip-path="url(#clipPath31)" /></svg>
