<?xml version="1.0" encoding="UTF-8" standalone="no"?>
<svg
   viewBox="0 0 350 350"
   style="width: 27px; margin-left: -3px;"
   version="1.1"
   id="svg18"
   sodipodi:docname="D_fsync.svg"
   inkscape:version="1.2.2 (b0a8486541, 2022-12-01)"
   xmlns:inkscape="http://www.inkscape.org/namespaces/inkscape"
   xmlns:sodipodi="http://sodipodi.sourceforge.net/DTD/sodipodi-0.dtd"
   xmlns="http://www.w3.org/2000/svg"
   xmlns:svg="http://www.w3.org/2000/svg">
  <defs
     id="defs22" />
  <sodipodi:namedview
     id="namedview20"
     pagecolor="#ffffff"
     bordercolor="#666666"
     borderopacity="1.0"
     inkscape:showpageshadow="2"
     inkscape:pageopacity="0.0"
     inkscape:pagecheckerboard="0"
     inkscape:deskcolor="#d1d1d1"
     showgrid="false"
     inkscape:zoom="2.0285714"
     inkscape:cx="69.753522"
     inkscape:cy="175"
     inkscape:window-width="1444"
     inkscape:window-height="870"
     inkscape:window-x="50"
     inkscape:window-y="30"
     inkscape:window-maximized="1"
     inkscape:current-layer="svg18" />
  <path
     id="iconPerformance"
     fill="currentColor"
     d="M 175,14.626951 A 160.40764,160.37256 0 0 0 14.591798,175 160.40764,160.37256 0 0 0 175,335.37305 160.40764,160.37256 0 0 0 335.4082,175 160.40764,160.37256 0 0 0 175,14.626951 Z m 0,12.003907 A 148.40028,148.36783 0 0 1 323.40039,175 148.40028,148.36783 0 0 1 175,323.36914 148.40028,148.36783 0 0 1 26.601564,175 148.40028,148.36783 0 0 1 175,26.630858 Z m 0.002,28.652343 c -1.02106,0 -2.03493,0.01513 -3.04492,0.04102 -19.3079,0.48833 -37.49003,5.6192 -53.46094,14.324219 -1.78318,0.972983 -3.53989,1.986858 -5.26758,3.044922 -33.170068,20.358581 -55.605164,56.572968 -56.648431,98.007808 -0.02948,1.00998 -0.04297,2.02734 -0.04297,3.04102 0,1.02107 0.01319,2.03494 0.04297,3.04492 0.488345,19.41519 5.674939,37.69233 14.46875,53.71875 0.969283,1.78318 1.995079,3.53947 3.060547,5.25976 4.698422,7.62106 10.236051,14.67307 16.488277,21.02149 l 26.880857,-26.88086 c -14.15073,-14.49109 -22.871087,-34.31087 -22.871087,-56.16406 0,-44.39448 35.992637,-80.386717 80.394527,-80.386717 17.64681,0 33.97327,5.68754 47.23242,15.335937 1.02021,0.81045 2.03882,1.67559 3.0586,2.53515 l 27.07226,-27.072261 c -4.89046,-4.228437 -10.1061,-8.090766 -15.64258,-11.486328 -1.72767,-1.061764 -3.4883,-2.075842 -5.27148,-3.048828 -15.95613,-8.682814 -34.1151,-13.806592 -53.4082,-14.294922 -1.01,-0.02608 -2.02735,-0.04102 -3.04102,-0.04102 z m 90.4707,42.150388 -27.05078,27.050781 c 0.35237,0.42923 0.7044,0.80219 1.05664,1.2461 4.41354,5.91248 8.02726,12.4536 10.69141,19.46289 l 36.875,-9.88086 c -2.19744,-6.38558 -4.91521,-12.53197 -8.12305,-18.375 -0.97296,-1.77948 -1.98943,-3.53404 -3.05859,-5.26172 -3.09854,-5.01874 -6.6,-9.75605 -10.39063,-14.242191 z m 26.18555,55.958991 -36.94922,9.90039 c 0.44404,3.421 0.68164,6.90724 0.68164,10.44922 0,4.44566 -0.3804,8.80125 -1.07422,13.05078 l 36.89063,9.88476 c 1.29807,-6.58961 2.06944,-13.36688 2.2207,-20.29687 0.0257,-0.87679 0.0352,-1.75818 0.0352,-2.63867 0,-1.15055 -0.0193,-2.30391 -0.0527,-3.44336 -0.1655,-5.75259 -0.79091,-11.38603 -1.75195,-16.90625 z m -117.00976,4.58008 c -10.53275,0.0492 -18.48287,9.50933 -16.7129,19.89062 1.37626,8.06065 8.44513,14.05824 16.62305,14.10352 2.8119,0.0166 5.45099,-0.6455 7.77149,-1.81641 l 49.60351,35.37695 c 1.08473,0.77315 2.58747,0.57551 3.43555,-0.45117 0.85071,-1.0272 0.75903,-2.53662 -0.20703,-3.45703 l -44.11914,-42.01562 c 0.68112,-2.4079 0.84626,-5.01889 0.36718,-7.68165 -1.44803,-8.04881 -8.58521,-13.98489 -16.76171,-13.94921 z m 0.13086,10.87304 c 1.42834,0.02 2.75886,0.53779 3.80273,1.4043 1.22513,1.00713 2.06363,2.48714 2.21094,4.19141 0.29106,3.36692 -2.21201,6.34005 -5.57617,6.63085 -1.66543,0.144 -3.23025,-0.39363 -4.42579,-1.38085 -1.22539,-1.00992 -2.06165,-2.49103 -2.20898,-4.19532 -0.2908,-3.36415 2.21588,-6.33813 5.58008,-6.6289 0.20749,-0.0178 0.41313,-0.0241 0.61719,-0.0215 z m 74.41796,35.89063 c -3.94557,9.43715 -9.63622,17.96306 -16.67382,25.16992 l 26.87304,26.87695 c 6.4187,-6.51489 12.0874,-13.77049 16.86719,-21.61718 1.05437,-1.73138 2.06331,-3.49243 3.02148,-5.2793 2.64081,-4.8829 4.90239,-9.99164 6.84571,-15.25391 z" />
</svg>
