<?xml version="1.0" encoding="UTF-8" standalone="no"?>
<svg
   viewBox="0 0 576 512"
   version="1.1"
   id="svg18"
   sodipodi:docname="D_fsync.svg"
   inkscape:version="1.2.2 (b0a8486541, 2022-12-01)"
   width="576"
   height="512"
   xmlns:inkscape="http://www.inkscape.org/namespaces/inkscape"
   xmlns:sodipodi="http://sodipodi.sourceforge.net/DTD/sodipodi-0.dtd"
   xmlns="http://www.w3.org/2000/svg"
   xmlns:svg="http://www.w3.org/2000/svg">
  <defs
     id="defs22" />
  <sodipodi:namedview
     id="namedview20"
     pagecolor="#ffffff"
     bordercolor="#666666"
     borderopacity="1.0"
     inkscape:showpageshadow="2"
     inkscape:pageopacity="0.0"
     inkscape:pagecheckerboard="0"
     inkscape:deskcolor="#d1d1d1"
     showgrid="false"
     inkscape:zoom="0.7172083"
     inkscape:cx="-122.00082"
     inkscape:cy="317.89928"
     inkscape:window-width="1444"
     inkscape:window-height="870"
     inkscape:window-x="50"
     inkscape:window-y="30"
     inkscape:window-maximized="1"
     inkscape:current-layer="svg18" />
  <path
     id="iconPerformance"
     fill="currentColor"
     d="M 288,7.4849955 A 248.56861,248.51424 0 0 0 39.430524,255.99999 248.56861,248.51424 0 0 0 288,504.515 248.56861,248.51424 0 0 0 536.56948,255.99999 248.56861,248.51424 0 0 0 288,7.4849955 Z M 288,26.08632 A 229.96193,229.91165 0 0 1 517.96211,255.99999 229.96193,229.91165 0 0 1 288,485.91367 229.96193,229.91165 0 0 1 58.040927,255.99999 229.96193,229.91165 0 0 1 288,26.08632 Z m 0.003,44.399836 c -1.58224,0 -3.15334,0.02344 -4.71842,0.06356 -29.91964,0.756719 -58.09477,8.707544 -82.84338,22.196892 -2.76323,1.507737 -5.48544,3.078847 -8.16268,4.718437 -51.40052,31.547755 -86.16608,87.665775 -87.78274,151.873445 -0.0457,1.56507 -0.0666,3.14158 -0.0666,4.71238 0,1.58227 0.0204,3.15337 0.0666,4.71844 0.75675,30.08589 8.79392,58.40825 22.42087,83.24288 1.502,2.76323 3.09158,5.48478 4.74264,8.15056 7.2807,11.80964 15.86184,22.73746 25.55033,32.57501 l 41.65483,-41.65472 c -21.92805,-22.45548 -35.44117,-53.16833 -35.44117,-87.03216 0,-68.79394 55.7744,-124.56772 124.57982,-124.56772 27.3456,0 52.64518,8.81345 73.19163,23.76466 1.58093,1.25588 3.15937,2.5965 4.73963,3.92848 l 41.95133,-41.95133 c -7.57829,-6.55241 -15.66047,-12.5375 -24.23983,-17.799275 -2.67721,-1.64531 -5.40549,-3.21674 -8.16872,-4.724481 -24.72571,-13.454938 -52.86496,-21.394774 -82.76165,-22.151493 -1.56511,-0.04041 -3.1416,-0.06356 -4.71239,-0.06356 z m 140.19392,65.316484 -41.91804,41.91804 c 0.54603,0.66514 1.09154,1.24308 1.63737,1.93097 6.83925,9.16201 12.43909,19.29817 16.56747,30.1598 l 57.14172,-15.31144 c -3.40517,-9.89513 -7.61664,-19.41961 -12.58753,-28.474 -1.5077,-2.75749 -3.08283,-5.47637 -4.73961,-8.15359 -4.80151,-7.77707 -10.2274,-15.11803 -16.10138,-22.06978 z m 40.57728,86.71437 -57.25672,15.3417 c 0.68808,5.3012 1.05627,10.7035 1.05627,16.19217 0,6.88902 -0.58947,13.63847 -1.66462,20.22357 l 57.16594,15.31748 c 2.01149,-10.2113 3.20681,-20.7134 3.44121,-31.45215 0.0398,-1.35868 0.0545,-2.72448 0.0545,-4.0889 0,-1.78289 -0.0299,-3.57015 -0.0817,-5.33585 -0.25646,-8.91424 -1.2256,-17.64385 -2.71483,-26.19802 z m -181.319,7.09732 c -16.32161,0.0762 -28.64116,14.73571 -25.8984,30.82262 2.13266,12.49083 13.08662,21.78473 25.75917,21.85489 4.35734,0.0257 8.44689,-1.00027 12.04275,-2.81471 l 76.86588,54.82032 c 1.68091,1.19808 4.00956,0.89182 5.32375,-0.69913 1.31826,-1.59176 1.1762,-3.93077 -0.32082,-5.35704 l -68.36727,-65.10765 c 1.05547,-3.73129 1.31137,-7.7773 0.56898,-11.90352 -2.24387,-12.47249 -13.30369,-21.67107 -25.97404,-21.61578 z m 0.20278,16.84892 c 2.21337,0.031 4.27515,0.83337 5.89274,2.17612 1.89846,1.56065 3.19781,3.85408 3.42608,6.49503 0.45103,5.2174 -3.42774,9.82458 -8.64086,10.2752 -2.58076,0.22315 -5.00562,-0.60997 -6.85823,-2.13977 -1.89888,-1.56498 -3.19475,-3.86011 -3.42305,-6.50109 -0.45063,-5.21311 3.43374,-9.82161 8.64692,-10.27218 0.32153,-0.0276 0.64019,-0.0374 0.9564,-0.0333 z m 115.3185,55.61633 c -6.11407,14.62386 -14.93234,27.83566 -25.83784,39.00346 l 41.64261,41.64867 c 9.94646,-10.09551 18.73071,-21.33883 26.1375,-33.4981 1.63386,-2.68296 3.19732,-5.41189 4.6821,-8.18084 4.09222,-7.56657 7.59677,-15.4831 10.60815,-23.63755 z"
     style="stroke-width:1.54961" />
</svg>
