<?xml version="1.0" encoding="UTF-8" standalone="no"?>
<svg
   viewBox="0 0 350 350"
   style="width: 27px; margin-left: -3px;"
   version="1.1"
   id="svg11"
   sodipodi:docname="D_performance.svg"
   inkscape:version="1.2.2 (b0a8486541, 2022-12-01)"
   xmlns:inkscape="http://www.inkscape.org/namespaces/inkscape"
   xmlns:sodipodi="http://sodipodi.sourceforge.net/DTD/sodipodi-0.dtd"
   xmlns="http://www.w3.org/2000/svg"
   xmlns:svg="http://www.w3.org/2000/svg">
  <defs
     id="defs15" />
  <sodipodi:namedview
     id="namedview13"
     pagecolor="#ffffff"
     bordercolor="#666666"
     borderopacity="1.0"
     inkscape:showpageshadow="2"
     inkscape:pageopacity="0.0"
     inkscape:pagecheckerboard="0"
     inkscape:deskcolor="#d1d1d1"
     showgrid="false"
     inkscape:zoom="2.0285714"
     inkscape:cx="69.507042"
     inkscape:cy="175"
     inkscape:window-width="1444"
     inkscape:window-height="870"
     inkscape:window-x="50"
     inkscape:window-y="30"
     inkscape:window-maximized="1"
     inkscape:current-layer="svg11" />
  <path
     id="iconPerformance"
     fill="currentColor"
     d="M 175,14.626953 C 86.408896,14.626635 14.591531,86.428267 14.591795,175 14.591531,263.57174 86.408896,335.37337 175,335.37305 263.59111,335.37334 335.40847,263.57173 335.40821,175 335.40847,86.428287 263.59111,14.626658 175,14.626953 Z m 0,12.003906 C 256.95978,26.630795 323.40111,93.058157 323.40039,175 323.40111,256.94185 256.95978,323.3692 175,323.36914 93.040986,323.36814 26.600843,256.9411 26.601561,175 26.600843,93.058917 93.040986,26.63186 175,26.630859 Z m 0.002,28.652344 c -1.02108,0 -2.03492,0.01512 -3.04493,0.04102 -19.3079,0.48833 -37.49005,5.6192 -53.46093,14.324219 -1.78318,0.972983 -3.53988,1.986858 -5.26758,3.044922 -33.170048,20.358578 -55.60518,56.572966 -56.648443,98.007806 -0.03024,1.00998 -0.04297,2.02734 -0.04297,3.04102 0,1.02107 0.01122,2.03494 0.04297,3.04492 0.488352,19.41519 5.674961,37.69233 14.46875,53.71875 0.969297,1.78318 1.995098,3.53948 3.060547,5.25977 4.698443,7.62106 10.236034,14.67306 16.488282,21.02148 l 26.880864,-26.88086 c -14.1507,-14.49108 -22.871104,-34.31087 -22.871104,-56.16406 0,-44.39448 35.992654,-80.386718 80.394544,-80.386718 17.6468,0 33.97327,5.68754 47.23242,15.335938 1.02021,0.81045 2.03884,1.67561 3.05859,2.53515 l 27.07227,-27.072259 c -4.89045,-4.228437 -10.10606,-8.090766 -15.64258,-11.486328 -1.72766,-1.061764 -3.4883,-2.075841 -5.27149,-3.048828 -15.95614,-8.682814 -34.11511,-13.806592 -53.4082,-14.294922 -1.01,-0.02608 -2.02735,-0.04102 -3.04101,-0.04102 z m -0.36719,39.156254 c -1.33376,0.004 -2.435,1.04158 -2.52344,2.37304 l -4.02539,60.791023 c -2.28571,1.0185 -4.39806,2.56386 -6.13672,4.63672 -5.25551,6.26579 -5.24372,15.54871 0.0195,21.80664 6.78165,8.0592 19.13742,8.10801 25.97852,0.10156 5.31054,-6.21823 5.39275,-15.48609 0.1914,-21.79688 -1.78764,-2.17064 -3.98591,-3.7758 -6.37109,-4.80859 L 177.1797,96.789057 c -0.10054,-1.32824 -1.21133,-2.35552 -2.54297,-2.3496 z m 90.83789,2.99414 -27.05078,27.050783 c 0.35225,0.42923 0.70439,0.80218 1.05664,1.24609 4.41354,5.91248 8.02725,12.4536 10.6914,19.46289 l 36.875,-9.88086 c -2.19745,-6.38558 -4.91517,-12.53197 -8.12304,-18.375 -0.97293,-1.77948 -1.98944,-3.53404 -3.0586,-5.26172 -3.09853,-5.01874 -6.60002,-9.75605 -10.39062,-14.242183 z m 26.18359,55.958983 -36.94726,9.90039 c 0.44402,3.421 0.68164,6.90724 0.68164,10.44922 0,4.44566 -0.38041,8.80125 -1.07422,13.05078 l 36.89062,9.88477 c 1.29808,-6.58962 2.06945,-13.36689 2.22071,-20.29688 0.0265,-0.87679 0.0332,-1.75818 0.0332,-2.63867 0,-1.15055 -0.0191,-2.3039 -0.0527,-3.44336 -0.16555,-5.75259 -0.79094,-11.38603 -1.75196,-16.90625 z m -116.63086,13.61719 c 1.56888,0.007 3.13357,0.61153 4.32227,1.81055 1.17691,1.18706 1.76629,2.73468 1.77344,4.28515 0.008,1.58791 -0.59378,3.17647 -1.8086,4.38086 -2.39807,2.37724 -6.2867,2.35699 -8.66406,-0.041 -1.17298,-1.18315 -1.76448,-2.73081 -1.76758,-4.28126 -0.0113,-1.58592 0.58796,-3.1765 1.80274,-4.38085 1.19998,-1.18966 2.77292,-1.78046 4.34179,-1.77344 z m 74.17188,37.72656 c -3.94556,9.43715 -9.6362,17.96306 -16.67383,25.16992 l 26.87305,26.87696 c 6.41869,-6.51489 12.0874,-13.7705 16.86718,-21.61719 1.05438,-1.73138 2.06334,-3.49243 3.02149,-5.2793 2.64083,-4.8829 4.90238,-9.99164 6.8457,-15.2539 z" />
</svg>
