<?xml version="1.0" encoding="UTF-8" standalone="no"?>
<svg
   viewBox="0 0 576 512"
   version="1.1"
   id="svg11"
   sodipodi:docname="D_performance.svg"
   inkscape:version="1.2.2 (b0a8486541, 2022-12-01)"
   width="576"
   height="512"
   xmlns:inkscape="http://www.inkscape.org/namespaces/inkscape"
   xmlns:sodipodi="http://sodipodi.sourceforge.net/DTD/sodipodi-0.dtd"
   xmlns="http://www.w3.org/2000/svg"
   xmlns:svg="http://www.w3.org/2000/svg">
  <defs
     id="defs15" />
  <sodipodi:namedview
     id="namedview13"
     pagecolor="#ffffff"
     bordercolor="#666666"
     borderopacity="1.0"
     inkscape:showpageshadow="2"
     inkscape:pageopacity="0.0"
     inkscape:pagecheckerboard="0"
     inkscape:deskcolor="#d1d1d1"
     showgrid="false"
     inkscape:zoom="0.7172083"
     inkscape:cx="489.39757"
     inkscape:cy="322.08216"
     inkscape:window-width="1444"
     inkscape:window-height="870"
     inkscape:window-x="50"
     inkscape:window-y="30"
     inkscape:window-maximized="1"
     inkscape:current-layer="svg11" />
  <path
     id="iconPerformance"
     fill="currentColor"
     d="M 287.99999,7.8316115 C 150.91018,7.8311195 39.776799,118.94016 39.777208,256 39.776799,393.05985 150.91018,504.16888 287.99999,504.16839 425.08982,504.16883 536.22319,393.05983 536.22279,256 536.22319,118.94019 425.08982,7.8311555 287.99999,7.8316115 Z m 0,18.5753785 C 414.8282,26.406891 517.64247,129.19955 517.64136,256 517.64236,382.80046 414.8282,485.59309 287.99999,485.593 161.17297,485.59145 58.360543,382.7993 58.361654,256 58.360543,129.20072 161.17297,26.408539 287.99999,26.40699 Z m 0.003,44.337911 c -1.58007,0 -3.14893,0.0234 -4.71186,0.06348 -29.8779,0.755664 -58.01377,8.6954 -82.72782,22.165934 -2.75937,1.505634 -5.47777,3.074544 -8.15129,4.711844 -51.32881,31.503771 -86.04592,87.543521 -87.66032,151.661641 -0.0468,1.56288 -0.0665,3.13719 -0.0665,4.70581 0,1.58004 0.0174,3.14895 0.0665,4.71184 0.7557,30.04393 8.78169,58.32679 22.38959,83.12678 1.49993,2.75937 3.0873,5.47715 4.73603,8.1392 7.27057,11.79317 15.83969,22.70575 25.5147,32.52958 l 41.59664,-41.59664 C 177.09124,318.54023 163.5969,287.8702 163.5969,254.05361 c 0,-68.698 55.69663,-124.39399 124.40609,-124.39399 27.30744,0 52.57175,8.80116 73.08955,23.73152 1.57871,1.25412 3.15499,2.59291 4.73299,3.923 l 41.89284,-41.89282 c -7.5677,-6.54327 -15.63857,-12.52001 -24.20603,-17.774451 -2.67345,-1.64302 -5.39795,-3.21225 -8.15733,-4.71789 -24.69124,-13.436172 -52.79124,-21.364934 -82.64623,-22.120598 -1.56292,-0.04036 -3.13721,-0.06348 -4.70579,-0.06348 z m -0.56821,60.592129 c -2.06392,0.006 -3.76802,1.61179 -3.90488,3.67215 l -6.22907,94.07073 c -3.53701,1.57607 -6.80575,3.96743 -9.49623,7.17507 -8.13261,9.69596 -8.11437,24.06076 0.0302,33.74456 10.49423,12.47117 29.6141,12.5467 40.20032,0.15716 8.21777,-9.62237 8.34498,-23.96386 0.29618,-33.72946 -2.76627,-3.35895 -6.16797,-5.84284 -9.85891,-7.44103 l -7.0995,-94.0133 c -0.15558,-2.05538 -1.87447,-3.64504 -3.93511,-3.63588 z m 140.56659,4.63327 -41.85958,41.85958 c 0.54509,0.66421 1.09001,1.24133 1.63509,1.92826 6.82971,9.14923 12.42173,19.27125 16.54435,30.11774 l 57.06202,-15.29009 c -3.40043,-9.88133 -7.60596,-19.39252 -12.56996,-28.43429 -1.50555,-2.75364 -3.07854,-5.46873 -4.73301,-8.14222 -4.7948,-7.76622 -10.21316,-15.09694 -16.07891,-22.03898 z m 40.51765,86.59341 -57.17383,15.32031 c 0.6871,5.29381 1.0548,10.68857 1.0548,16.16959 0,6.87941 -0.58866,13.61944 -1.66229,20.19535 l 57.08618,15.29614 c 2.00871,-10.19708 3.20236,-20.68452 3.43643,-31.4083 0.041,-1.35678 0.0514,-2.72068 0.0514,-4.08319 0,-1.78042 -0.0296,-3.56516 -0.0815,-5.32841 -0.25618,-8.90182 -1.22393,-17.61925 -2.71106,-26.16149 z m -180.47967,21.07185 c 2.42775,0.0108 4.84902,0.94631 6.68847,2.80173 1.8212,1.8369 2.73323,4.23176 2.7443,6.63103 0.0124,2.4572 -0.91884,4.91541 -2.79871,6.77913 -3.71088,3.67865 -9.72832,3.64732 -13.40715,-0.0634 -1.81512,-1.83086 -2.73044,-4.22578 -2.73523,-6.62501 -0.0175,-2.45413 0.90983,-4.91546 2.78964,-6.77913 1.8569,-1.84093 4.29094,-2.75516 6.71868,-2.74429 z m 114.77686,58.37976 c -6.10553,14.60346 -14.91148,27.79683 -25.80183,38.94905 l 41.58456,41.5906 c 9.93256,-10.08143 18.70458,-21.30908 26.10102,-33.4514 1.6316,-2.67921 3.19291,-5.40434 4.67559,-8.16942 4.08654,-7.55602 7.58616,-15.46151 10.59334,-23.60457 z"
     style="stroke-width:1.54744" />
</svg>
