<svg viewBox="0 0 576 512"><path fill="currentColor" d="M 32.328126,15.992441 C 14.50348,15.992441 0,30.494548 0,48.320567 V 472.3616 c 0,17.82602 14.50348,32.32812 32.328126,32.32812 H 385.08791 c -2.75291,-5.5744 -3.40507,-11.8674 -1.78515,-17.92186 0.9341,-3.48265 2.55011,-6.65931 4.73241,-9.38478 -2.98471,-1.81607 -5.58526,-4.25072 -7.65234,-7.20117 -0.95467,-1.36068 -1.7617,-2.80023 -2.42969,-4.2871 H 38.792971 V 131.59987 H 499.15431 v 218.28321 c 9.82792,0.88746 18.0731,7.34269 21.53516,16.18165 3.06565,-1.68028 6.48324,-2.71832 10.07423,-3.03517 2.42919,-0.21123 4.84159,-0.0619 7.18163,0.40039 V 48.320567 c 0,-17.826019 -14.49956,-32.328126 -32.32422,-32.328126 z M 364.5801,58.340099 h 11.93749 c 6.59354,0 11.9375,5.343958 11.9375,11.937501 v 13.529295 c 0,6.592173 -5.34396,11.935548 -11.9375,11.935548 H 364.5801 c -6.59082,0 -11.93556,-5.343375 -11.93556,-11.935548 V 70.2776 c 0,-6.592171 5.34474,-11.937501 11.93556,-11.937501 z m 55.50585,0 h 11.9375 c 6.59356,0 11.93556,5.343958 11.93556,11.937501 v 13.529295 c 0,6.592173 -5.34337,11.935548 -11.93556,11.935548 h -11.9375 c -6.59215,0 -11.93555,-5.343375 -11.93555,-11.935548 V 70.2776 c 0,-6.592171 5.3434,-11.937501 11.93555,-11.937501 z m 55.50392,0 h 11.93554 c 6.59354,0 11.9375,5.343958 11.9375,11.937501 v 13.529295 c 0,6.592173 -5.34533,11.935548 -11.9375,11.935548 h -11.93554 c -6.59356,0 -11.93555,-5.343375 -11.93555,-11.935548 V 70.2776 c 0,-6.592171 5.34336,-11.937501 11.93555,-11.937501 z M 297.26172,170.97487 c -7.34383,0 -13.78236,4.69856 -16.01952,11.68164 l -57.00587,176.63088 c -1.62266,5.09979 -0.71065,10.71581 2.44141,15.03515 3.15618,4.31797 8.23397,6.89843 13.58203,6.89843 h 0.43165 c 7.34109,0 13.77535,-4.69991 16.00975,-11.68163 l 57.00002,-176.6172 c 1.63775,-5.09569 0.72981,-10.71932 -2.42773,-15.04689 -3.1562,-4.3207 -8.23397,-6.90038 -13.58205,-6.90038 z m -88.18944,47.89649 c -2.4388,0 -4.88564,0.53693 -7.07617,1.55467 l -86.5215,40.23439 c -5.91045,2.74881 -9.72851,8.73406 -9.72851,15.24804 v 1.20314 c 0,6.50575 3.81531,12.48748 9.72851,15.24999 l 86.53125,40.24023 c 2.23717,1.0356 4.61933,1.56056 7.08008,1.56056 3.20693,0 6.33159,-0.9104 9.04884,-2.63868 4.86663,-3.11091 7.77149,-8.40797 7.77149,-14.17578 l -0.002,-0.4414 c 0,-6.51812 -3.81922,-12.50591 -9.73242,-15.25196 l -54.1192,-25.14453 54.12109,-25.14844 c 5.91183,-2.74879 9.73047,-8.73465 9.73047,-15.25001 v -0.4375 c 0,-5.77466 -2.90564,-11.07525 -7.76952,-14.17381 -2.69119,-1.71869 -5.82677,-2.62891 -9.0625,-2.62891 z m 119.81055,0.002 c -3.23438,0 -6.37075,0.90712 -9.06056,2.62306 -4.8721,3.10406 -7.7793,8.40306 -7.7793,14.17772 v 0.4375 c 0,6.50987 3.81709,12.49806 9.73438,15.25783 l 54.1172,25.14257 -54.1172,25.14258 c -5.91318,2.74606 -9.73438,8.73384 -9.73438,15.25196 v 0.4414 c 0,5.76781 2.90604,11.06213 7.77539,14.17578 2.70765,1.72554 5.83584,2.63868 9.04688,2.63868 2.45801,0 4.8376,-0.52475 7.08985,-1.56446 l 86.52735,-40.24024 c 5.90773,-2.75565 9.72266,-8.73837 9.72266,-15.24414 v -1.20311 c -0.004,-6.51536 -3.82253,-12.50179 -9.73438,-15.25196 l -86.5215,-40.23438 c -2.18365,-1.01502 -4.62759,-1.55079 -7.06639,-1.55079 z m 146.60548,151.46291 c -2.78035,0 -5.03712,2.25929 -5.03712,5.04102 v 18.36913 c -5.43312,1.25507 -10.61214,3.15993 -15.46094,5.62891 l -11.80664,-14.07227 c -1.78864,-2.13154 -4.96668,-2.40836 -7.09961,-0.6211 l -15.82031,13.2754 c -1.02325,0.86003 -1.66525,2.09 -1.78321,3.42188 -0.11525,1.33188 0.3015,2.65644 1.16015,3.67969 l 11.81837,14.08203 c -3.28647,4.36736 -6.06694,9.14202 -8.23827,14.23632 l -18.08791,-3.1875 c -2.73506,-0.48145 -5.35232,1.34676 -5.83789,4.08595 l -3.58398,20.34178 c -0.23181,1.31544 0.068,2.66774 0.83204,3.76369 0.7695,1.09595 1.93321,1.84045 3.25,2.07226 l 18.10351,3.18946 c 0.29491,5.60867 1.27185,11.0361 2.84374,16.20312 l -15.9121,9.18358 c -1.15767,0.66526 -2.00063,1.7673 -2.34766,3.05666 -0.34566,1.29073 -0.16269,2.66459 0.50391,3.82227 l 10.32618,17.88867 c 0.66525,1.15767 1.76924,2.00198 3.05859,2.34764 0.42933,0.11526 0.86714,0.16993 1.30469,0.16993 0.87647,0 1.74397,-0.22666 2.51758,-0.67382 l 15.92382,-9.19532 c 3.74463,4.01209 7.97207,7.56755 12.5918,10.57421 l -6.28711,17.27345 c -0.45539,1.25645 -0.39723,2.64234 0.16803,3.85351 0.56512,1.21117 1.58673,2.14812 2.8418,2.60351 l 19.40625,7.06252 c 0.55688,0.203 1.14166,0.30664 1.72461,0.30664 0.72698,0 1.45736,-0.15717 2.13085,-0.47267 1.21117,-0.56375 2.14677,-1.58731 2.60351,-2.84374 l 6.28517,-17.27345 c 2.6953,0.32645 5.43958,0.4961 8.22266,0.4961 2.78309,0 5.5254,-0.17241 8.2207,-0.4961 l 6.28711,17.27345 c 0.45539,1.25643 1.39507,2.27999 2.60352,2.84374 0.67211,0.31411 1.39975,0.47267 2.13084,0.47267 0.58158,0 1.16578,-0.10097 1.72267,-0.30664 l 19.4082,-7.06252 c 1.25232,-0.45539 2.2761,-1.39508 2.83985,-2.60351 0.56512,-1.21117 0.6266,-2.59706 0.16994,-3.85351 l -6.28908,-17.26954 c 4.61562,-3.00667 8.84306,-6.56487 12.59181,-10.57422 l 15.92383,9.19336 c 0.77224,0.44442 1.64305,0.67579 2.51952,0.67579 0.43619,0 0.87616,-0.0594 1.30275,-0.17184 1.29072,-0.34566 2.39197,-1.19273 3.0586,-2.34766 l 10.32617,-17.89062 c 0.66662,-1.15493 0.84955,-2.53154 0.50389,-3.82226 -0.34703,-1.28661 -1.18997,-2.38866 -2.34764,-3.05666 l -15.90822,-9.18164 c 1.57192,-5.16837 2.54494,-10.59385 2.83984,-16.20116 l 18.10353,-3.19142 c 1.31679,-0.23181 2.48462,-0.97825 3.25,-2.0742 0.79419,-1.09733 1.0951,-2.44825 0.86329,-3.76369 l -3.58595,-20.34178 c -0.48419,-2.73919 -3.09595,-4.56877 -5.83789,-4.08595 l -18.08789,3.1875 c -2.17132,-5.09568 -4.94631,-9.86955 -8.23828,-14.23829 l 11.8164,-14.08397 c 0.85865,-1.02051 1.27733,-2.34391 1.16211,-3.67578 -0.11792,-1.33188 -0.75995,-2.56185 -1.78321,-3.42188 l -15.82225,-13.27734 c -1.02326,-0.85866 -2.34919,-1.2748 -3.67969,-1.15821 -1.33188,0.11659 -2.56126,0.75605 -3.41992,1.7793 l -11.80274,14.07422 c -4.84605,-2.46898 -10.03054,-4.37247 -15.46094,-5.62891 v -18.36913 c 0,-2.78173 -2.2554,-5.04102 -5.03711,-5.04102 z m 10.33008,61.18945 c 15.30217,0 27.70897,12.40486 27.70897,27.70703 0,15.30219 -12.4068,27.70899 -27.70897,27.70899 -15.3008,0 -27.70703,-12.4068 -27.70703,-27.70899 0,-15.30217 12.4076,-27.70703 27.70703,-27.70703 z"></path></svg>
