<?xml version="1.0" encoding="UTF-8" standalone="no"?>
<svg
   viewBox="0 0 576 512"
   version="1.1"
   id="svg66"
   sodipodi:docname="U_numLock.svg"
   inkscape:version="1.2.2 (b0a8486541, 2022-12-01)"
   xmlns:inkscape="http://www.inkscape.org/namespaces/inkscape"
   xmlns:sodipodi="http://sodipodi.sourceforge.net/DTD/sodipodi-0.dtd"
   xmlns="http://www.w3.org/2000/svg"
   xmlns:svg="http://www.w3.org/2000/svg">
  <defs
     id="defs70" />
  <sodipodi:namedview
     id="namedview68"
     pagecolor="#ffffff"
     bordercolor="#666666"
     borderopacity="1.0"
     inkscape:showpageshadow="2"
     inkscape:pageopacity="0.0"
     inkscape:pagecheckerboard="0"
     inkscape:deskcolor="#d1d1d1"
     showgrid="false"
     inkscape:zoom="1.3867188"
     inkscape:cx="288.09014"
     inkscape:cy="256"
     inkscape:window-width="1444"
     inkscape:window-height="870"
     inkscape:window-x="50"
     inkscape:window-y="30"
     inkscape:window-maximized="1"
     inkscape:current-layer="svg66" />
  <path
     id="iconNumLock_text"
     fill="currentColor"
     d="m 176.19921,47.475585 c -36.58489,0 -66.03905,29.452207 -66.03905,66.037115 v 284.97266 c 0,36.5849 29.45416,66.03906 66.03905,66.03906 h 223.60158 c 36.58489,0 66.03905,-29.45416 66.03905,-66.03906 V 113.5127 c 0,-36.584908 -29.45416,-66.037115 -66.03905,-66.037115 z M 182,94.946288 h 40 c 6.59998,0 12,5.400012 12,12.000002 v 40 c 0,6.6 -5.40002,12 -12,12 h -40 c -6.61999,0 -12,-5.4 -12,-12 v -40 c 0,-6.59999 5.38001,-12.000002 12,-12.000002 z m 86,0 h 40 c 6.59998,0 12,5.400012 12,12.000002 v 40 c 0,6.6 -5.40002,12 -12,12 h -40 c -6.61999,0 -12,-5.4 -12,-12 v -40 c 0,-6.59999 5.38001,-12.000002 12,-12.000002 z m 86,0 h 40 c 6.59998,0 12,5.400012 12,12.000002 v 40 c 0,6.6 -5.40002,12 -12,12 h -40 c -6.61999,0 -12,-5.4 -12,-12 v -40 c 0,-6.59999 5.38001,-12.000002 12,-12.000002 z M 182,180.94629 h 40 c 6.59998,0 12,5.40002 12,12 v 40 c 0,6.6 -5.40002,12 -12,12 h -40 c -6.61999,0 -12,-5.4 -12,-12 v -40 c 0,-6.59998 5.38001,-12 12,-12 z m 86,0 h 40 c 6.59998,0 12,5.40002 12,12 v 40 c 0,6.6 -5.40002,12 -12,12 h -40 c -6.61999,0 -12,-5.4 -12,-12 v -40 c 0,-6.59998 5.38001,-12 12,-12 z m 86,0 h 40 c 6.59998,0 12,5.40002 12,12 v 40 c 0,6.6 -5.40002,12 -12,12 h -40 c -6.61999,0 -12,-5.4 -12,-12 v -40 c 0,-6.59998 5.38001,-12 12,-12 z m -172,86 h 40 c 6.59998,0 12,5.40002 12,12 v 40 c 0,6.6 -5.40002,12 -12,12 h -40 c -6.61999,0 -12,-5.4 -12,-12 v -40 c 0,-6.59998 5.38001,-12 12,-12 z m 86,0 h 40 c 6.59998,0 12,5.40002 12,12 v 40 c 0,6.6 -5.40002,12 -12,12 h -40 c -6.61999,0 -12,-5.4 -12,-12 v -40 c 0,-6.59998 5.38001,-12 12,-12 z m 86,0.25 h 40 c 6.59998,0 12,5.40002 12,12 v 125.85547 c 0,6.59998 -5.40002,12 -12,12 h -40 c -6.61999,0 -12,-5.40002 -12,-12 V 279.19629 c 0,-6.59998 5.38001,-12 12,-12 z m -172,85.75 h 40 c 6.59998,0 12,5.40002 12,12 v 40 c 0,6.6 -5.40002,12 -12,12 h -40 c -6.61999,0 -12,-5.4 -12,-12 v -40 c 0,-6.59998 5.38001,-12 12,-12 z m 86,0 h 40 c 6.59998,0 12,5.40002 12,12 v 40 c 0,6.6 -5.40002,12 -12,12 h -40 c -6.61999,0 -12,-5.4 -12,-12 v -40 c 0,-6.59998 5.38001,-12 12,-12 z" />
</svg>
